<svg xmlns="http://www.w3.org/2000/svg" width="28.463" height="42.695" viewBox="0 0 28.463 42.695"><g transform="translate(-12 -2)"><path d="M38.329,36.867a2.135,2.135,0,0,0,0-4.269V11.962a.713.713,0,0,0-.263-.552L26.68,2.159a.711.711,0,0,0-.9,0L14.4,11.41a.713.713,0,0,0-.263.552V32.6a2.135,2.135,0,1,0,0,4.269h.712V38l-2.638,2.638a.711.711,0,0,0-.208.5v3.558h1.423V41.432l2.638-2.638a.711.711,0,0,0,.208-.5V36.867h5.693v2.552l-1.926,1.926a.711.711,0,0,0-.208.5v2.846h1.423V42.143l1.926-1.926a.711.711,0,0,0,.208-.5V36.867H25.52v4.269h1.423V36.867h5.693V39a.711.711,0,0,0,.208.5l2.638,2.638v2.552h1.423V41.848a.711.711,0,0,0-.208-.5l-2.638-2.638v-1.84h2.135v1.423a.711.711,0,0,0,.208.5l2.638,2.638v.417h1.423v-.712a.711.711,0,0,0-.208-.5L37.617,38V36.867ZM36.312,11.819l-4.429,2.214-5.4-2.026a.719.719,0,0,0-.5,0l-5.4,2.026-4.429-2.214L22.1,6.981h8.253ZM21.251,15.3l4.269-1.6V32.6H21.251Zm5.693-1.6,4.269,1.6V32.6H26.943Zm5.693,1.548,4.269-2.135V32.6H32.636Zm-6.4-11.62,2.375,1.93h-4.75ZM15.558,13.113l4.269,2.135V32.6H15.558ZM13.423,34.733a.712.712,0,0,1,.712-.712H38.329a.712.712,0,0,1,0,1.423H14.135A.712.712,0,0,1,13.423,34.733Z" fill="#fff"/><path d="M31,59h1.423v2.135H31Z" transform="translate(-5.48 -16.44)" fill="#fff"/><path d="M37.423,54.84V53H36v2.135a.711.711,0,0,0,.208.5l1.926,1.926V59.4h1.423V57.269a.711.711,0,0,0-.208-.5Z" transform="translate(-6.922 -14.709)" fill="#fff"/><path d="M50,60h1.423v1.423H50Z" transform="translate(-10.96 -16.728)" fill="#fff"/><path d="M21.269,53H19.846v.417l-2.638,2.638a.711.711,0,0,0-.208.5V59.4h1.423V56.853l2.638-2.638a.711.711,0,0,0,.208-.5Z" transform="translate(-1.442 -14.709)" fill="#fff"/></g></svg>