<svg xmlns="http://www.w3.org/2000/svg" width="42.473" height="31.869" viewBox="0 0 42.473 31.869"><g transform="translate(0 -65.225)"><g transform="translate(0 65.225)"><path d="M201.029,65.655l-1.439-.395a.648.648,0,0,0-.545.058.755.755,0,0,0-.36.453l-8.657,29.964a.7.7,0,0,0,.058.569.753.753,0,0,0,.453.36l1.439.395a.646.646,0,0,0,.545-.058.756.756,0,0,0,.36-.452l8.658-29.964a.7.7,0,0,0-.058-.569A.753.753,0,0,0,201.029,65.655Z" transform="translate(-174.547 -65.225)" fill="#fff"/><path d="M13.508,120.692a.734.734,0,0,0-.232-.534L12.115,119a.73.73,0,0,0-1.068,0L.232,129.813a.73.73,0,0,0,0,1.068L11.048,141.7a.73.73,0,0,0,1.068,0l1.161-1.16a.73.73,0,0,0,0-1.068l-9.121-9.122,9.121-9.121A.733.733,0,0,0,13.508,120.692Z" transform="translate(0 -114.413)" fill="#fff"/><path d="M369.587,129.81l-10.816-10.816a.73.73,0,0,0-1.068,0l-1.16,1.16a.731.731,0,0,0,0,1.068l9.122,9.121-9.122,9.122a.731.731,0,0,0,0,1.068l1.16,1.16a.73.73,0,0,0,1.068,0l10.816-10.816a.73.73,0,0,0,0-1.068Z" transform="translate(-327.346 -114.41)" fill="#fff"/></g></g></svg>