<svg xmlns="http://www.w3.org/2000/svg" width="38.558" height="38.558" viewBox="0 0 38.558 38.558"><path d="M32.911,5.647A19.279,19.279,0,0,0,5.647,32.911,19.279,19.279,0,0,0,32.911,5.647ZM32.751,29.42A24.039,24.039,0,0,0,29.14,27.4a32.393,32.393,0,0,0,.963-6.919h6A16.777,16.777,0,0,1,32.751,29.42Zm-30.3-8.936h6A32.4,32.4,0,0,0,9.418,27.4,24.032,24.032,0,0,0,5.807,29.42a16.777,16.777,0,0,1-3.354-8.936ZM5.807,9.138a24.026,24.026,0,0,0,3.611,2.018,32.4,32.4,0,0,0-.963,6.918h-6A16.778,16.778,0,0,1,5.807,9.138ZM27.158,5.932a16.3,16.3,0,0,0-1.426-2.238,16.927,16.927,0,0,1,5.42,3.615,21.608,21.608,0,0,1-2.723,1.52A21.646,21.646,0,0,0,27.158,5.932Zm-.976,3.8a21.673,21.673,0,0,1-6.9,1.117,21.673,21.673,0,0,1-6.9-1.117c1.541-4.387,4.087-7.318,6.9-7.318s5.362,2.931,6.9,7.318ZM10.867,18.074a30.206,30.206,0,0,1,.824-6.033,24.085,24.085,0,0,0,7.588,1.214,24.085,24.085,0,0,0,7.588-1.214,30.2,30.2,0,0,1,.824,6.033Zm16.824,2.41a30.209,30.209,0,0,1-.824,6.034,24.322,24.322,0,0,0-15.176,0,30.2,30.2,0,0,1-.824-6.034ZM11.4,5.932a21.669,21.669,0,0,0-1.272,2.9,21.6,21.6,0,0,1-2.723-1.52,16.924,16.924,0,0,1,5.421-3.615A16.293,16.293,0,0,0,11.4,5.932Zm-1.272,23.8a21.662,21.662,0,0,0,1.272,2.9,16.3,16.3,0,0,0,1.426,2.238,16.926,16.926,0,0,1-5.42-3.614,21.62,21.62,0,0,1,2.722-1.52Zm2.248-.9a21.884,21.884,0,0,1,13.806,0c-1.541,4.387-4.087,7.317-6.9,7.317s-5.362-2.931-6.9-7.317Zm14.782,3.8a21.662,21.662,0,0,0,1.272-2.9,21.619,21.619,0,0,1,2.722,1.52,16.925,16.925,0,0,1-5.42,3.614A16.287,16.287,0,0,0,27.158,32.626ZM30.1,18.074a32.4,32.4,0,0,0-.963-6.918,24.023,24.023,0,0,0,3.611-2.018A16.777,16.777,0,0,1,36.1,18.074Z" fill="#fff"/></svg>