<svg xmlns="http://www.w3.org/2000/svg" width="26.974" height="42.805" viewBox="0 0 26.974 42.805"><g transform="translate(-71.6)"><g transform="translate(71.6)"><path d="M97.38,1.2v0A4.051,4.051,0,0,0,94.51,0H75.659A4.073,4.073,0,0,0,71.6,4.059V38.741a4.076,4.076,0,0,0,4.059,4.064H94.515a4.076,4.076,0,0,0,4.059-4.059V4.064A4.051,4.051,0,0,0,97.38,1.2ZM85.087,40.05h0a1.1,1.1,0,1,1,1.1-1.1A1.1,1.1,0,0,1,85.087,40.05Zm10.263-6.885A2.653,2.653,0,0,1,92.7,35.818H77.472a2.653,2.653,0,0,1-2.653-2.653V7.318a2.653,2.653,0,0,1,2.653-2.653H92.7a2.653,2.653,0,0,1,2.653,2.653Z" transform="translate(-71.6)" fill="#fff"/></g></g></svg>