<svg xmlns="http://www.w3.org/2000/svg" width="49.364" height="42.805" viewBox="0 0 49.364 42.805"><path d="M57.364,62a.8.8,0,0,0-.524-.748L45.421,57.1V43.8H45.39a.788.788,0,0,0-.494-.961L32.954,38.5a.785.785,0,0,0-.543,0L20.467,42.843a.8.8,0,0,0-.5.575h-.021V57.1L8.524,61.255a.8.8,0,0,0-.5.575H8V75.945h.02a.8.8,0,0,0,.5.922l11.943,4.342a.782.782,0,0,0,.543,0l11.671-4.244,11.671,4.244a.782.782,0,0,0,.543,0l11.943-4.342a.8.8,0,0,0,.495-.535h.03V62.217S57.363,62.076,57.364,62ZM19.943,79.324,9.592,75.561V63.14L19.943,66.9Zm.8-13.825L11.126,62l9.55-3.473,9.614,3.5ZM31.886,75.561,21.535,79.324V66.9L31.886,63.14Zm0-14.694L21.535,57.1V44.728l10.351,3.764ZM23.069,43.592l9.613-3.5,9.613,3.5-9.613,3.5Zm20.76,1.137V57.1L33.478,60.867V48.492Zm0,34.6L33.478,75.561V63.14L43.829,66.9Zm.8-13.825-9.551-3.472,9.614-3.5L54.238,62ZM55.772,75.561,45.421,79.324V66.9L55.772,63.14Z" transform="translate(-8 -38.453)" fill="#fff"/></svg>