<svg xmlns="http://www.w3.org/2000/svg" width="32.441" height="38.096" viewBox="0 0 32.441 38.096"><g transform="translate(0 0.001)"><path d="M32.4,10.335v-.03c-.017-.366-.028-.753-.034-1.184a4.038,4.038,0,0,0-3.8-3.955A15.667,15.667,0,0,1,17.9.672L17.878.648a2.438,2.438,0,0,0-3.313,0l-.025.024A15.669,15.669,0,0,1,3.876,5.167a4.037,4.037,0,0,0-3.8,3.955C.068,9.55.057,9.937.04,10.306l0,.069C-.047,14.841-.153,20.4,1.707,25.445a19.184,19.184,0,0,0,4.6,7.169,24.076,24.076,0,0,0,9.007,5.327,2.79,2.79,0,0,0,.369.1,2.727,2.727,0,0,0,1.072,0,2.8,2.8,0,0,0,.371-.1,24.092,24.092,0,0,0,9-5.33,19.211,19.211,0,0,0,4.6-7.171C32.593,20.379,32.488,14.81,32.4,10.335ZM28.629,24.666c-1.961,5.318-5.965,8.97-12.24,11.164a.562.562,0,0,1-.071.019.5.5,0,0,1-.2,0,.557.557,0,0,1-.07-.019C9.771,33.64,5.764,29.99,3.8,24.672c-1.714-4.651-1.617-9.753-1.531-14.255v-.025c.017-.387.029-.792.035-1.237A1.8,1.8,0,0,1,4,7.4a19.613,19.613,0,0,0,6.657-1.464A17.416,17.416,0,0,0,16.083,2.29a.206.206,0,0,1,.277,0,17.423,17.423,0,0,0,5.425,3.645A19.614,19.614,0,0,0,28.441,7.4a1.794,1.794,0,0,1,1.691,1.757c.007.448.018.853.036,1.237C30.254,14.9,30.348,20.006,28.629,24.666Zm0,0" transform="translate(0 0)" fill="#fff"/><path d="M99.892,128.41a9.494,9.494,0,1,0,9.494,9.494A9.5,9.5,0,0,0,99.892,128.41Zm0,16.753a7.259,7.259,0,1,1,7.258-7.259A7.267,7.267,0,0,1,99.892,145.163Zm0,0" transform="translate(-83.672 -118.856)" fill="#fff"/><path d="M161.187,212.319l-4.41,4.41-1.2-1.2A1.118,1.118,0,1,0,154,217.112l1.987,1.987a1.118,1.118,0,0,0,1.581,0l5.2-5.2a1.118,1.118,0,1,0-1.581-1.581Zm0,0" transform="translate(-142.239 -196.219)" fill="#fff"/></g></svg>