<svg xmlns="http://www.w3.org/2000/svg" width="27.76" height="23.134" viewBox="0 0 27.76 23.134"><g transform="translate(0 -4)"><path d="M26.026,23.664H1.735A1.737,1.737,0,0,1,0,21.929V5.735A1.737,1.737,0,0,1,1.735,4h24.29a1.737,1.737,0,0,1,1.735,1.735V21.929A1.737,1.737,0,0,1,26.026,23.664ZM1.735,5.157a.579.579,0,0,0-.578.578V21.929a.579.579,0,0,0,.578.578h24.29a.579.579,0,0,0,.578-.578V5.735a.579.579,0,0,0-.578-.578Z" fill="#006fff"/><path d="M16.675,24.627h-8.1a.579.579,0,0,1-.409-.988,4.7,4.7,0,0,0,1.542-3.058A.584.584,0,0,1,10.29,20h4.65a.579.579,0,0,1,.578.575,4.816,4.816,0,0,0,1.566,3.064.579.579,0,0,1-.409.988ZM9.817,23.47h5.618a6.043,6.043,0,0,1-1.006-2.313h-3.62a5.959,5.959,0,0,1-.991,2.313Zm5.7-2.892h.012Z" transform="translate(1.253 2.507)" fill="#006fff"/><path d="M27.182,18.157H.578A.578.578,0,0,1,.578,17h26.6a.578.578,0,0,1,0,1.157Z" transform="translate(0 2.037)" fill="#006fff"/><path d="M12.783,17.567a5.783,5.783,0,1,1,5.783-5.783A5.79,5.79,0,0,1,12.783,17.567Zm0-10.41a4.627,4.627,0,1,0,4.627,4.627A4.631,4.631,0,0,0,12.783,7.157Z" transform="translate(1.097 0.313)" fill="#006fff"/><path d="M8.9,16.042a.578.578,0,0,1-.409-.987L12,11.545V6.578a.578.578,0,1,1,1.157,0v5.205a.582.582,0,0,1-.169.409L9.306,15.874A.581.581,0,0,1,8.9,16.042Z" transform="translate(1.303 0.313)" fill="#006fff"/></g></svg>