<svg xmlns="http://www.w3.org/2000/svg" width="14.51" height="23.025" viewBox="0 0 14.51 23.025"><path d="M85.468.645v0A2.179,2.179,0,0,0,83.924,0H73.784A2.191,2.191,0,0,0,71.6,2.184V20.839a2.193,2.193,0,0,0,2.184,2.186H83.926a2.193,2.193,0,0,0,2.184-2.184V2.186A2.179,2.179,0,0,0,85.468.645Zm-6.613,20.9h0a.59.59,0,1,1,.59-.59A.59.59,0,0,1,78.855,21.543Zm5.521-3.7a1.427,1.427,0,0,1-1.427,1.427h-8.19a1.427,1.427,0,0,1-1.427-1.427V3.937a1.427,1.427,0,0,1,1.427-1.427h8.192a1.427,1.427,0,0,1,1.427,1.427Z" transform="translate(-71.6)" fill="#006fff"/></svg>