<svg xmlns="http://www.w3.org/2000/svg" width="22.511" height="22.487" viewBox="0 0 22.511 22.487"><path d="M20.093,14.85a2.422,2.422,0,0,0-2.326,1.759H15.432V14.034h2.384A4.7,4.7,0,0,0,19.18,4.846a5.367,5.367,0,0,0-5.2-4.062,5.309,5.309,0,0,0-2.688.72A4.7,4.7,0,0,0,3.434,4.816,4.7,4.7,0,0,0,4.7,14.034H7.079v2.574H4.744a2.418,2.418,0,1,0,0,1.319H7.738a.66.66,0,0,0,.66-.66V14.034h2.2v3.986a2.418,2.418,0,1,0,1.319,0V14.034h2.2v3.234a.66.66,0,0,0,.66.66h2.994a2.418,2.418,0,1,0,2.326-3.078ZM2.418,18.367a1.1,1.1,0,1,1,1.1-1.1A1.1,1.1,0,0,1,2.418,18.367Zm9.937,1.979a1.1,1.1,0,1,1-1.1-1.1A1.1,1.1,0,0,1,12.355,20.345ZM4.7,12.715A3.376,3.376,0,0,1,4.2,6a.659.659,0,0,0,.561-.713c-.01-.1-.014-.208-.014-.313A3.377,3.377,0,0,1,10.7,2.781a.66.66,0,0,0,.895.1,3.99,3.99,0,0,1,2.39-.781,4.047,4.047,0,0,1,3.986,3.387.66.66,0,0,0,.52.54,3.376,3.376,0,0,1-.671,6.685H4.7Zm15.4,5.652a1.1,1.1,0,1,1,1.1-1.1A1.1,1.1,0,0,1,20.093,18.367Z" transform="translate(0 -0.277)" fill="#006fff"/></svg>