<svg xmlns="http://www.w3.org/2000/svg" width="15.333" height="23" viewBox="0 0 15.333 23"><path d="M26.184,20.783a1.15,1.15,0,0,0,0-2.3V7.366a.384.384,0,0,0-.142-.3L19.908,2.085a.383.383,0,0,0-.483,0L13.292,7.069a.384.384,0,0,0-.142.3V18.483a1.15,1.15,0,1,0,0,2.3h.383v.608l-1.421,1.421a.383.383,0,0,0-.112.271V25h.767V23.242l1.421-1.421a.383.383,0,0,0,.112-.271v-.767h3.067v1.375L16.329,23.2a.383.383,0,0,0-.112.271V25h.767V23.625l1.038-1.038a.383.383,0,0,0,.112-.271V20.783h1.15v2.3h.767v-2.3h3.067v1.15a.383.383,0,0,0,.112.271l1.421,1.421V25h.767V23.467A.383.383,0,0,0,25.3,23.2l-1.421-1.421v-.991h1.15v.767a.383.383,0,0,0,.112.271l1.421,1.421v.225h.767v-.383a.383.383,0,0,0-.112-.271L25.8,21.391v-.608ZM25.1,7.289,22.712,8.482,19.8,7.391a.387.387,0,0,0-.269,0l-2.91,1.091L14.236,7.289l3.208-2.606H21.89ZM16.983,9.166l2.3-.862v10.18h-2.3ZM20.05,8.3l2.3.862v9.318h-2.3Zm3.067.834,2.3-1.15v10.5h-2.3Zm-3.45-6.26,1.279,1.04H18.387Zm-5.75,5.11,2.3,1.15v9.346h-2.3Zm-1.15,11.647a.384.384,0,0,1,.383-.383H26.184a.383.383,0,0,1,0,.767H13.15A.384.384,0,0,1,12.767,19.633Z" transform="translate(-12 -2)" fill="#006fff"/></svg>