<svg xmlns="http://www.w3.org/2000/svg" width="27.085" height="23.486" viewBox="0 0 27.085 23.486"><path d="M35.085,51.374a.437.437,0,0,0-.288-.411l-6.265-2.278v-7.3h-.017a.433.433,0,0,0-.271-.527l-6.553-2.382a.431.431,0,0,0-.3,0l-6.553,2.382a.438.438,0,0,0-.276.316h-.011v7.508L8.288,50.964a.438.438,0,0,0-.276.316H8v7.744h.011a.436.436,0,0,0,.277.506l6.553,2.382a.429.429,0,0,0,.3,0l6.4-2.328,6.4,2.328a.429.429,0,0,0,.3,0L34.8,59.529a.436.436,0,0,0,.271-.294h.016V51.491S35.084,51.414,35.085,51.374Zm-20.532,9.5L8.874,58.813V52l5.679,2.065Zm.437-7.585L9.715,51.374l5.24-1.906,5.275,1.918Zm6.116,5.521-5.679,2.065V54.063L21.105,52Zm0-8.062-5.679-2.065V41.9l5.679,2.065Zm-4.838-9.479,5.274-1.918,5.274,1.918L21.542,43.19Zm11.39.624v6.79l-5.679,2.065v-6.79Zm0,18.982-5.679-2.065V52l5.679,2.065Zm.437-7.585-5.241-1.905,5.275-1.918,5.24,1.906Zm6.116,5.521-5.679,2.065V54.063L34.211,52Z" transform="translate(-8 -38.453)" fill="#006fff"/></svg>