<svg xmlns="http://www.w3.org/2000/svg" width="60.2" height="44.74" viewBox="0 0 60.2 44.74">
  <g id="Group_930" data-name="Group 930" transform="translate(-1064.049 -1128.91)">
    <circle id="Ellipse_214" data-name="Ellipse 214" cx="4.18" cy="4.18" r="4.18" transform="translate(1085.409 1134.46)" fill="#fff"/>
    <path id="Path_2771" data-name="Path 2771" d="M471.08,32.38V27.16h5.23" transform="translate(609.619 1102.86)" fill="none" stroke="#fff" stroke-miterlimit="10" stroke-width="2.22"/>
    <path id="Path_2772" data-name="Path 2772" d="M483.63,27.16h5.22v5.22" transform="translate(609.619 1102.86)" fill="none" stroke="#fff" stroke-miterlimit="10" stroke-width="2.22"/>
    <path id="Path_2773" data-name="Path 2773" d="M488.85,38.91v5.23h-5.22" transform="translate(609.619 1102.86)" fill="none" stroke="#fff" stroke-miterlimit="10" stroke-width="2.22"/>
    <path id="Path_2774" data-name="Path 2774" d="M476.31,44.14h-5.23V38.91" transform="translate(609.619 1102.86)" fill="none" stroke="#fff" stroke-miterlimit="10" stroke-width="2.22"/>
    <circle id="Ellipse_215" data-name="Ellipse 215" cx="4.18" cy="4.18" r="4.18" transform="translate(1110.079 1153.22)" fill="#fff"/>
    <path id="Path_2775" data-name="Path 2775" d="M495.76,51.14V45.92h5.22" transform="translate(609.619 1102.86)" fill="none" stroke="#fff" stroke-miterlimit="10" stroke-width="2.22"/>
    <path id="Path_2776" data-name="Path 2776" d="M508.3,45.92h5.22v5.22" transform="translate(609.619 1102.86)" fill="none" stroke="#fff" stroke-miterlimit="10" stroke-width="2.22"/>
    <path id="Path_2777" data-name="Path 2777" d="M513.52,57.67V62.9H508.3" transform="translate(609.619 1102.86)" fill="none" stroke="#fff" stroke-miterlimit="10" stroke-width="2.22"/>
    <path id="Path_2778" data-name="Path 2778" d="M500.98,62.9h-5.22V57.67" transform="translate(609.619 1102.86)" fill="none" stroke="#fff" stroke-miterlimit="10" stroke-width="2.22"/>
    <circle id="Ellipse_216" data-name="Ellipse 216" cx="4.18" cy="4.18" r="4.18" transform="translate(1069.859 1160)" fill="#fff"/>
    <path id="Path_2779" data-name="Path 2779" d="M455.54,57.92V52.69h5.22" transform="translate(609.619 1102.86)" fill="none" stroke="#fff" stroke-miterlimit="10" stroke-width="2.22"/>
    <path id="Path_2780" data-name="Path 2780" d="M468.08,52.69h5.23v5.23" transform="translate(609.619 1102.86)" fill="none" stroke="#fff" stroke-miterlimit="10" stroke-width="2.22"/>
    <path id="Path_2781" data-name="Path 2781" d="M473.31,64.45v5.23h-5.23" transform="translate(609.619 1102.86)" fill="none" stroke="#fff" stroke-miterlimit="10" stroke-width="2.22"/>
    <path id="Path_2782" data-name="Path 2782" d="M460.76,69.68h-5.22V64.45" transform="translate(609.619 1102.86)" fill="none" stroke="#fff" stroke-miterlimit="10" stroke-width="2.22"/>
  </g>
</svg>
