<svg xmlns="http://www.w3.org/2000/svg" width="49.17" height="46.696" viewBox="0 0 49.17 46.696">
  <g id="Group_933" data-name="Group 933" transform="translate(-1067.219 -1194.734)">
    <path id="Path_2783" data-name="Path 2783" d="M470.4,115.16a.82.82,0,1,1-.82-.82.82.82,0,0,1,.82.82Zm0,0" transform="translate(609.619 1102.86)" fill="#fff"/>
    <path id="Path_2784" data-name="Path 2784" d="M473.66,111.89a.82.82,0,1,1-.82-.82A.82.82,0,0,1,473.66,111.89Zm0,0" transform="translate(609.619 1102.86)" fill="#fff"/>
    <path id="Path_2785" data-name="Path 2785" d="M496.78,98.87h0v-.06h0v-.06h0v-.07h0a.851.851,0,0,0,0-.09.8.8,0,0,0,0-.09h0a.653.653,0,0,0,0-.07v-.3h0a9.9,9.9,0,0,0-17.46-1.82h0v.06h0v.06h0v.07h0a.744.744,0,0,0,0,.09.72.72,0,0,0,0,.09v.39h0a9.9,9.9,0,0,0,17.46,1.82Zm-9.12,2.77a8.26,8.26,0,0,1-6.21-3.93l4.92.51a.82.82,0,0,0,.17-1.63l-4.92-.51a8.26,8.26,0,0,1,12.44.44,8.364,8.364,0,0,1,.65.92l-4.92-.51a.82.82,0,1,0-.17,1.63l4.92.51a8.23,8.23,0,0,1-6.89,2.57Zm0,0" transform="translate(609.619 1102.86)" fill="#fff"/>
    <rect id="Rectangle_1736" data-name="Rectangle 1736" width="49.17" height="1.81" transform="translate(1067.219 1230.82)" fill="#fff"/>
    <path id="Path_2786" data-name="Path 2786" d="M466.89,126.46h1.83c-1.52-3-2.79-4.76-3.06-5.49a10.19,10.19,0,0,1,16-11.35l.11.08h0l.11.05h.53l.11-.05h0l.11-.07A10.239,10.239,0,0,1,498.78,121c-.26.73-1.54,2.47-3.06,5.49h1.83c1.34-2.68,2.5-4.19,2.77-4.93A11.82,11.82,0,0,0,483,107.46a22.239,22.239,0,0,0-5.43-11.35.82.82,0,1,0-1.16,1.16,20.92,20.92,0,0,1,4.93,10.1,11.827,11.827,0,0,0-17.18,14.17C464.39,122.27,465.55,123.78,466.89,126.46Z" transform="translate(609.619 1102.86)" fill="#fff"/>
    <path id="Path_2787" data-name="Path 2787" d="M469.33,131.28a10,10,0,0,0,2.56,3.54c3.06,2.72,3.56,3.75,6.17,3.75a6.91,6.91,0,0,0,2.66-.53,6.84,6.84,0,0,1,3,0,6.92,6.92,0,0,0,2.66.53c2.61,0,3-1,6.17-3.75a10,10,0,0,0,2.56-3.54Z" transform="translate(609.619 1102.86)" fill="#fff"/>
  </g>
</svg>
