<svg xmlns="http://www.w3.org/2000/svg" width="72.691" height="39.611" viewBox="0 0 72.691 39.611">
  <g id="Group_934" data-name="Group 934" transform="translate(-1062.567 -1267.249)">
    <rect id="Rectangle_1737" data-name="Rectangle 1737" width="28.88" height="1.79" transform="translate(1135.259 1302.94) rotate(180)" fill="#fff"/>
    <rect id="Rectangle_1738" data-name="Rectangle 1738" width="28.88" height="1.79" transform="translate(1135.259 1296.06) rotate(180)" fill="#fff"/>
    <rect id="Rectangle_1739" data-name="Rectangle 1739" width="28.88" height="1.79" transform="translate(1135.259 1289.18) rotate(180)" fill="#fff"/>
    <rect id="Rectangle_1740" data-name="Rectangle 1740" width="18.66" height="1.79" transform="translate(1125.039 1282.3) rotate(180)" fill="#fff"/>
    <rect id="Rectangle_1741" data-name="Rectangle 1741" width="18.66" height="1.79" transform="translate(1125.039 1275.42) rotate(180)" fill="#fff"/>
    <path id="Path_2788" data-name="Path 2788" d="M464.25,188.87a1.4,1.4,0,1,1-1.4-1.4,1.4,1.4,0,0,1,1.4,1.4Zm0,0" transform="translate(609.619 1102.86)" fill="#fff"/>
    <path id="Path_2789" data-name="Path 2789" d="M479.73,188.87a1.4,1.4,0,1,1-1.4-1.4,1.4,1.4,0,0,1,1.4,1.4Zm0,0" transform="translate(609.619 1102.86)" fill="#fff"/>
    <path id="Path_2790" data-name="Path 2790" d="M462.85,184.38a2.84,2.84,0,0,0-2,.84.75.75,0,0,0,1.06,1.06,1.37,1.37,0,0,1,1.93,0,.75.75,0,1,0,1.06-1.06,2.84,2.84,0,0,0-2-.84Zm0,0" transform="translate(609.619 1102.86)" fill="#fff"/>
    <path id="Path_2791" data-name="Path 2791" d="M476.31,185.22a.75.75,0,1,0,1.06,1.06,1.37,1.37,0,0,1,1.93,0,.75.75,0,1,0,1.06-1.06,2.87,2.87,0,0,0-4,0Zm0,0" transform="translate(609.619 1102.86)" fill="#fff"/>
    <path id="Path_2792" data-name="Path 2792" d="M472,194.81a2,2,0,0,1-2.88,0,.75.75,0,1,0-1.06,1.06,3.53,3.53,0,0,0,5,0,.75.75,0,1,0-1.06-1.06Zm0,0" transform="translate(609.619 1102.86)" fill="#fff"/>
    <path id="Path_2793" data-name="Path 2793" d="M488.23,188.15a4.15,4.15,0,0,0-3.4-4.08V171.56A4.83,4.83,0,0,0,478.4,167l-4.7-1.59a18.63,18.63,0,0,0-11-.36c-4.68,1.29-7.37,4-7.78,7.91a5.679,5.679,0,0,0-.86,1.61l-.36,1.08a1.3,1.3,0,0,0,2.13,1.35,2.6,2.6,0,0,1,.49-.37v7.45a4.15,4.15,0,0,0,.23,8.19,14.36,14.36,0,0,0,3.93,7.54A14.07,14.07,0,0,0,470.59,204h0a14.25,14.25,0,0,0,14-11.79,4.15,4.15,0,0,0,3.61-4.11Zm-6.39-19.37a3.28,3.28,0,0,1,1.49,2.78v9.79a4.86,4.86,0,0,1-4.1-4.79l-.06-8.22a3.28,3.28,0,0,1,2.67.45Zm-26.49,6.69.15-.43a4.19,4.19,0,0,1,5.74-2.46,5.72,5.72,0,0,0,6.66-1.39l.18-.21a.751.751,0,0,0-1.12-1l-.19.21a4.21,4.21,0,0,1-4.91,1,5.69,5.69,0,0,0-4.64-.07l-.4.19c.87-2.32,3-3.95,6.28-4.86a17.14,17.14,0,0,1,10.1.34l4.45,1.51.06,3.86a13.21,13.21,0,0,1-17.86,3.23,4.05,4.05,0,0,0-4.52,0Zm-.92,12.67a2.66,2.66,0,0,1,1.9-2.54v5.05a2.66,2.66,0,0,1-1.94-2.55Zm25.17,10.67a12.67,12.67,0,0,1-9,3.73h0a12.59,12.59,0,0,1-9-3.79,12.89,12.89,0,0,1-3.73-9.1V176.27a2.59,2.59,0,0,1,1.22.42,14.71,14.71,0,0,0,18.68-2.16v2a6.36,6.36,0,0,0,5.6,6.3v6.95a12.67,12.67,0,0,1-3.73,9Zm5.2-8.12V185.6a2.65,2.65,0,0,1,0,5.1Zm0,0" transform="translate(609.619 1102.86)" fill="#fff"/>
  </g>
</svg>
