<svg xmlns="http://www.w3.org/2000/svg" width="68.881" height="68.881" viewBox="0 0 68.881 68.881">
  <g id="Rectangle-290" transform="translate(2 2)">
    <g id="Group_428" data-name="Group 428">
      <path id="path-1" d="M-298.351,240h1.582a31.64,31.64,0,0,1,31.649,31.649v1.582a31.64,31.64,0,0,1-31.649,31.649h-1.582A31.64,31.64,0,0,1-330,273.232v-1.582A31.64,31.64,0,0,1-298.351,240Z" transform="translate(330 -240)" fill="#22273e" stroke="#fff" stroke-width="4"/>
    </g>
    <g id="Group_429" data-name="Group 429">
      <path id="path-1_1_" d="M-298.351,240h1.582a31.64,31.64,0,0,1,31.649,31.649v1.582a31.64,31.64,0,0,1-31.649,31.649h-1.582A31.64,31.64,0,0,1-330,273.232v-1.582A31.64,31.64,0,0,1-298.351,240Z" transform="translate(330 -240)" fill="none" stroke="#71abf6" stroke-width="1"/>
    </g>
  </g>
</svg>
