<svg xmlns="http://www.w3.org/2000/svg" width="62" height="55.578" viewBox="0 0 62 55.578">
  <g id="cloud-computing_1_" data-name="cloud-computing(1)" transform="translate(0 -26.517)">
    <g id="Group_492" data-name="Group 492" transform="translate(42.729 60.849)">
      <g id="Group_491" data-name="Group 491">
        <path id="Path_1719" data-name="Path 1719" d="M358.783,323.483h-4.99a.935.935,0,0,1-.936-.936V310.97a.936.936,0,1,1,1.871,0v10.642h4.054a.936.936,0,0,1,0,1.871Z" transform="translate(-352.858 -310.034)" fill="#447d99"/>
      </g>
    </g>
    <g id="Group_494" data-name="Group 494" transform="translate(12.41 60.849)">
      <g id="Group_493" data-name="Group 493">
        <path id="Path_1720" data-name="Path 1720" d="M108.409,323.483h-4.99a.936.936,0,1,1,0-1.871h4.054V310.971a.936.936,0,1,1,1.871,0v11.577A.936.936,0,0,1,108.409,323.483Z" transform="translate(-102.484 -310.035)" fill="#447d99"/>
      </g>
    </g>
    <path id="Path_1721" data-name="Path 1721" d="M52.549,42.882H48.3a17.636,17.636,0,0,0-33.806-5.665,12.375,12.375,0,1,0-2.118,24.567H52.549a9.451,9.451,0,1,0,0-18.9Z" fill="#eefaff"/>
    <path id="Path_1722" data-name="Path 1722" d="M35.074,27.067a17.678,17.678,0,0,0-11.85,10.155,12.375,12.375,0,1,0-2.118,24.567H12.374a12.374,12.374,0,1,1,2.118-24.567A17.656,17.656,0,0,1,35.074,27.067Z" transform="translate(0 -0.004)" fill="#dff1f7"/>
    <g id="Group_496" data-name="Group 496" transform="translate(35.533 54.93)">
      <g id="Group_495" data-name="Group 495">
        <path id="Path_1723" data-name="Path 1723" d="M294.373,284.262a.935.935,0,0,1-.936-.936v-21.24a.936.936,0,0,1,1.871,0v21.24A.935.935,0,0,1,294.373,284.262Z" transform="translate(-293.437 -261.151)" fill="#447d99"/>
      </g>
    </g>
    <g id="Group_498" data-name="Group 498" transform="translate(24.595 54.93)">
      <g id="Group_497" data-name="Group 497">
        <path id="Path_1724" data-name="Path 1724" d="M204.047,284.262a.935.935,0,0,1-.936-.936v-21.24a.936.936,0,0,1,1.871,0v21.24A.936.936,0,0,1,204.047,284.262Z" transform="translate(-203.111 -261.151)" fill="#447d99"/>
      </g>
    </g>
    <g id="Group_512" data-name="Group 512" transform="translate(16.278 31.851)">
      <g id="Group_511" data-name="Group 511">
        <g id="Group_503" data-name="Group 503" transform="translate(9.484)">
          <g id="Group_499" data-name="Group 499" transform="translate(4.303)">
            <path id="Path_1725" data-name="Path 1725" d="M249.21,76.928a.935.935,0,0,1-.936-.936V71.5a.936.936,0,0,1,1.871,0v4.494A.935.935,0,0,1,249.21,76.928Z" transform="translate(-248.274 -70.563)" fill="#447d99"/>
          </g>
          <g id="Group_502" data-name="Group 502" transform="translate(0 1.747)">
            <g id="Group_500" data-name="Group 500" transform="translate(8.606)">
              <path id="Path_1726" data-name="Path 1726" d="M284.743,89.608a.935.935,0,0,1-.936-.936V85.926a.936.936,0,1,1,1.871,0v2.747A.935.935,0,0,1,284.743,89.608Z" transform="translate(-283.807 -84.99)" fill="#447d99"/>
            </g>
            <g id="Group_501" data-name="Group 501">
              <path id="Path_1727" data-name="Path 1727" d="M213.677,89.608a.935.935,0,0,1-.936-.936V85.926a.936.936,0,1,1,1.871,0v2.747A.936.936,0,0,1,213.677,89.608Z" transform="translate(-212.741 -84.99)" fill="#447d99"/>
            </g>
          </g>
        </g>
        <g id="Group_510" data-name="Group 510" transform="translate(0 9.484)">
          <g id="Group_504" data-name="Group 504" transform="translate(0 4.303)">
            <path id="Path_1728" data-name="Path 1728" d="M139.854,186.283h-4.494a.936.936,0,0,1,0-1.871h4.494a.936.936,0,1,1,0,1.871Z" transform="translate(-134.425 -184.412)" fill="#447d99"/>
          </g>
          <g id="Group_505" data-name="Group 505" transform="translate(1.312)">
            <path id="Path_1729" data-name="Path 1729" d="M149.374,150.75h-3.182a.936.936,0,0,1,0-1.871h3.182a.936.936,0,0,1,0,1.871Z" transform="translate(-145.256 -148.879)" fill="#447d99"/>
          </g>
          <g id="Group_506" data-name="Group 506" transform="translate(1.312 8.606)">
            <path id="Path_1730" data-name="Path 1730" d="M149.374,221.816h-3.182a.936.936,0,0,1,0-1.871h3.182a.936.936,0,0,1,0,1.871Z" transform="translate(-145.256 -219.945)" fill="#447d99"/>
          </g>
          <g id="Group_507" data-name="Group 507" transform="translate(23.079 4.303)">
            <path id="Path_1731" data-name="Path 1731" d="M330.443,186.283H325.95a.936.936,0,0,1,0-1.871h4.494a.936.936,0,1,1,0,1.871Z" transform="translate(-325.014 -184.412)" fill="#447d99"/>
          </g>
          <g id="Group_508" data-name="Group 508" transform="translate(23.079)">
            <path id="Path_1732" data-name="Path 1732" d="M328.955,150.75H325.95a.936.936,0,1,1,0-1.871h3.006a.936.936,0,0,1,0,1.871Z" transform="translate(-325.014 -148.879)" fill="#447d99"/>
          </g>
          <g id="Group_509" data-name="Group 509" transform="translate(23.079 8.606)">
            <path id="Path_1733" data-name="Path 1733" d="M328.955,221.816H325.95a.936.936,0,1,1,0-1.871h3.006a.936.936,0,0,1,0,1.871Z" transform="translate(-325.014 -219.945)" fill="#447d99"/>
          </g>
        </g>
      </g>
    </g>
    <path id="Path_1734" data-name="Path 1734" d="M196.029,133.983H181.076a1.816,1.816,0,0,1-1.816-1.816V117.213a1.816,1.816,0,0,1,1.816-1.816h14.953a1.816,1.816,0,0,1,1.816,1.816v14.953A1.816,1.816,0,0,1,196.029,133.983Z" transform="translate(-157.553 -78.117)" fill="#b3e59f"/>
    <path id="Path_1735" data-name="Path 1735" d="M0,0H8.606V8.606H0Z" transform="translate(35.303 42.27) rotate(90)" fill="#eefaff"/>
    <g id="Group_513" data-name="Group 513" transform="translate(8.356 70.867)">
      <circle id="Ellipse_88" data-name="Ellipse 88" cx="2.495" cy="2.495" r="2.495" transform="translate(40.299)" fill="#c9ebfa"/>
      <circle id="Ellipse_89" data-name="Ellipse 89" cx="2.495" cy="2.495" r="2.495" transform="translate(25.618 6.237)" fill="#c9ebfa"/>
      <circle id="Ellipse_90" data-name="Ellipse 90" cx="2.495" cy="2.495" r="2.495" transform="translate(14.68 6.237)" fill="#c9ebfa"/>
      <circle id="Ellipse_91" data-name="Ellipse 91" cx="2.495" cy="2.495" r="2.495" fill="#c9ebfa"/>
    </g>
  </g>
</svg>
