<svg xmlns="http://www.w3.org/2000/svg" width="46.275" height="46.275" viewBox="0 0 46.275 46.275">
  <g id="test" style="isolation: isolate">
    <path id="Path_1690" data-name="Path 1690" d="M46.275,23.138A23.138,23.138,0,1,1,23.138,0,23.137,23.137,0,0,1,46.275,23.138Zm0,0" fill="#017296"/>
    <path id="Path_1691" data-name="Path 1691" d="M271.832,119.886v-.994a.181.181,0,0,1,.181-.181h10.861a.181.181,0,0,1,.181.181v.994a.181.181,0,0,1-.181.181H272.013A.181.181,0,0,1,271.832,119.886ZM285.585,138.6H272.013a.181.181,0,0,0-.181.181v.994a.181.181,0,0,0,.181.181h13.572a.181.181,0,0,0,.181-.181v-.994A.181.181,0,0,0,285.585,138.6Zm-13.572-1.356h10.861a.181.181,0,0,0,.181-.181v-.994a.181.181,0,0,0-.181-.181H272.013a.181.181,0,0,0-.181.181v.994A.181.181,0,0,0,272.013,137.24Zm13.572-4.067H272.013a.181.181,0,0,0-.181.181v.994a.181.181,0,0,0,.181.181h13.572a.181.181,0,0,0,.181-.181v-.994A.181.181,0,0,0,285.585,133.173Zm0-11.75H272.013a.181.181,0,0,0-.181.181v.994a.181.181,0,0,0,.181.181h13.572a.181.181,0,0,0,.181-.181V121.6A.181.181,0,0,0,285.585,121.423Zm0-5.423H272.013a.181.181,0,0,0-.181.181v.994a.181.181,0,0,0,.181.181h13.572a.181.181,0,0,0,.181-.181v-.994A.181.181,0,0,0,285.585,116Zm0,0" transform="translate(-247.263 -105.516)" fill="#6caac9"/>
    <path id="Path_1692" data-name="Path 1692" d="M85.053,105.673a6.553,6.553,0,1,0,6.553,6.553A6.56,6.56,0,0,0,85.053,105.673Zm0,11.75a5.2,5.2,0,1,1,5.2-5.2A5.2,5.2,0,0,1,85.053,117.422Zm0-15.817A6.553,6.553,0,1,0,78.5,95.053,6.56,6.56,0,0,0,85.053,101.605Zm0-11.75a5.2,5.2,0,1,1-5.2,5.2A5.2,5.2,0,0,1,85.053,89.856Zm0,0" transform="translate(-71.405 -80.501)" fill="#88b9d3"/>
    <path id="Path_1693" data-name="Path 1693" d="M408.223,26.377l-2.556,2.556a.9.9,0,0,1-1.278,0L400.554,25.1a.9.9,0,0,1,0-1.278l2.556-2.556a.9.9,0,0,1,1.278,0l3.835,3.835A.9.9,0,0,1,408.223,26.377Zm0,0" transform="translate(-364.11 -19.102)" fill="#024c67"/>
    <path id="Path_1694" data-name="Path 1694" d="M118.788,79.307l-9.143,9.142a.4.4,0,0,1-.564,0l-3.988-3.987a.2.2,0,0,1,0-.282l1.128-1.128a.2.2,0,0,1,.282,0l2.718,2.719a.2.2,0,0,0,.282,0l7.874-7.874a.2.2,0,0,1,.282,0l1.128,1.128a.2.2,0,0,1,0,.282Zm-10.444,22.414a1.806,1.806,0,0,0-.53,1.278v1.627a.181.181,0,0,0,.181.181h1.627a1.806,1.806,0,0,0,1.278-.53l2.027-2.027-2.556-2.556Zm0,0" transform="translate(-95.542 -70.804)" fill="#fded32"/>
    <path id="Path_1695" data-name="Path 1695" d="M196.443,36.112,174.32,58.236a1.807,1.807,0,0,1-.924.494l-2.586.517a1.354,1.354,0,0,1-1.223-.37l-1.021-1.021a1.354,1.354,0,0,1-.37-1.223l.517-2.586a1.808,1.808,0,0,1,.494-.924L191.33,31Zm0,0" transform="translate(-152.97 -28.198)" fill="#fc9302"/>
    <path id="Path_1696" data-name="Path 1696" d="M210.712,51.548,188.588,73.671a1.806,1.806,0,0,1-.924.494l-2.586.517a1.354,1.354,0,0,1-1.223-.37l.66-3.3a1.806,1.806,0,0,1,.494-.924l22.124-22.124Zm0,0" transform="translate(-167.238 -43.633)" fill="#fdbf43"/>
    <path id="Path_1697" data-name="Path 1697" d="M157.722,280.894l-1.409,1.409a1.807,1.807,0,0,1-2.556,0l-1.278,1.278-2.556-2.556,1.278-1.278a1.807,1.807,0,0,1,0-2.556l1.409-1.409Zm0,0" transform="translate(-136.372 -250.856)" fill="#024c67"/>
  </g>
</svg>
