<svg xmlns="http://www.w3.org/2000/svg" width="65.995" height="65.995" viewBox="0 0 65.995 65.995">
  <g id="Group_480" data-name="Group 480" transform="translate(-788.5 -2515.5)">
    <g id="support" transform="translate(787.749 2514.75)">
      <g id="Group_469" data-name="Group 469" transform="translate(1.251 1.25)">
        <g id="path-1">
          <path id="Path_1671" data-name="Path 1671" d="M33.158,65.65A30.943,30.943,0,0,1,2.251,34.743V33.157A30.942,30.942,0,0,1,33.158,2.25h1.585A30.942,30.942,0,0,1,65.651,33.157v1.585A30.943,30.943,0,0,1,34.744,65.65Z" transform="translate(-1.454 -1.453)" fill="#22273e"/>
          <path id="Path_1672" data-name="Path 1672" d="M34.541,2.845a30.145,30.145,0,0,1,30.11,30.11V34.54a30.145,30.145,0,0,1-30.11,30.11H32.956A30.144,30.144,0,0,1,2.846,34.54V32.955a30.144,30.144,0,0,1,30.11-30.11h1.585m0-1.595H32.956a31.705,31.705,0,0,0-31.7,31.7V34.54a31.7,31.7,0,0,0,31.7,31.7h1.585a31.7,31.7,0,0,0,31.7-31.7V32.955a31.7,31.7,0,0,0-31.7-31.7Z" transform="translate(-1.251 -1.25)" fill="#fff"/>
        </g>
      </g>
      <g id="Group_470" data-name="Group 470" transform="translate(1.251 1.25)">
        <path id="path-1_1_" d="M32.956,1.25h1.585a31.7,31.7,0,0,1,31.7,31.7V34.54a31.7,31.7,0,0,1-31.7,31.7H32.956a31.7,31.7,0,0,1-31.7-31.7V32.955A31.705,31.705,0,0,1,32.956,1.25Z" transform="translate(-1.251 -1.25)" fill="none" stroke="#71abf6" stroke-width="1"/>
      </g>
      <g id="Group_479" data-name="Group 479" transform="translate(18.324 18.951)">
        <g id="Group_471" data-name="Group 471" transform="translate(16.765)">
          <path id="Path_1673" data-name="Path 1673" d="M47.065,36.864l2.05-2.05a5.913,5.913,0,0,0,4.612-.109.564.564,0,0,0,.166-.912L50.24,30.141a1.138,1.138,0,0,1,0-1.608l3.649-3.648a.565.565,0,0,0-.167-.916,5.89,5.89,0,0,0-7.949,7.421l-2.092,2.092Zm0,0" transform="translate(-43.681 -23.446)" fill="#fff"/>
        </g>
        <g id="Group_472" data-name="Group 472" transform="translate(9.293 8.038)">
          <path id="Path_1674" data-name="Path 1674" d="M52.257,55.08a1.281,1.281,0,0,1-.912-.378L34.312,37.67l4.146-4.145L55.49,50.557a1.289,1.289,0,0,1,0,1.824L53.168,54.7A1.279,1.279,0,0,1,52.257,55.08ZM35.8,37.67,52.092,53.957a.232.232,0,0,0,.166.069.236.236,0,0,0,.163-.068l2.323-2.322a.233.233,0,0,0,0-.332L38.458,35.017Z" transform="translate(-34.312 -33.525)" fill="#fff"/>
        </g>
        <g id="Group_473" data-name="Group 473" transform="translate(25.42 2.93)">
          <path id="Path_1675" data-name="Path 1675" d="M57.707,27.3l-2.994,2.992a.615.615,0,0,0,0,.867l2.308,2.306a.612.612,0,0,0,.911-.049,5.823,5.823,0,0,0,.769-5.932.612.612,0,0,0-.994-.184Zm0,0" transform="translate(-54.535 -27.12)" fill="#fff"/>
        </g>
        <g id="Group_474" data-name="Group 474" transform="translate(4.238 15.865)">
          <path id="Path_1676" data-name="Path 1676" d="M28.136,46.5,31.728,50.1a1.115,1.115,0,0,1,0,1.578L28.14,55.263a.558.558,0,0,0,.164.9,5.794,5.794,0,0,0,7.825-7.277l2.222-2.223L35.025,43.34l-2.17,2.168a5.814,5.814,0,0,0-4.556.1.554.554,0,0,0-.163.9Zm0,0" transform="translate(-27.974 -43.34)" fill="#fff"/>
        </g>
        <g id="Group_475" data-name="Group 475" transform="translate(1.17 19.641)">
          <path id="Path_1677" data-name="Path 1677" d="M25.446,48.316a6.139,6.139,0,0,0-.81,6.254.644.644,0,0,0,1.046.194l3.154-3.155a.646.646,0,0,0,0-.913L26.4,48.265a.643.643,0,0,0-.959.051Zm0,0" transform="translate(-24.126 -48.075)" fill="#fff"/>
        </g>
        <g id="Group_476" data-name="Group 476" transform="translate(0 8.01)">
          <path id="Path_1678" data-name="Path 1678" d="M27.045,39.5a.967.967,0,0,0,1.368,0l.182-.182a.966.966,0,0,0,0-1.368l-.364-.365.718-.719L25.575,33.49l-.718.718-.364-.364a.966.966,0,0,0-1.368,0l-.183.183a.967.967,0,0,0,0,1.367Zm0,0" transform="translate(-22.659 -33.49)" fill="#fff"/>
        </g>
        <g id="Group_477" data-name="Group 477" transform="translate(9.603 0.298)">
          <path id="Path_1679" data-name="Path 1679" d="M34.7,25.046l3.33,3.33c3.84-2.558,5.985-.412,3.034-3.365-2.041-2.041-4.619-1.075-6.365.034Zm0,0" transform="translate(-34.701 -23.82)" fill="#fff"/>
        </g>
        <g id="Group_478" data-name="Group 478" transform="translate(2.827 1.335)">
          <path id="Path_1680" data-name="Path 1680" d="M31.957,25.4a.967.967,0,0,0-1.368,0l-4.1,4.1a.967.967,0,0,0,0,1.367l.365.364,3.372,3.373.365.364a.965.965,0,0,0,.862.266.975.975,0,0,0,.391-.167,1.2,1.2,0,0,0,.115-.1L35.929,31l.131-.129a1,1,0,0,0,.132-.166.966.966,0,0,0-.132-1.2l-.4-.4-3.345-3.344Zm0,0" transform="translate(-26.204 -25.12)" fill="#fff"/>
        </g>
      </g>
    </g>
  </g>
</svg>
