<svg xmlns="http://www.w3.org/2000/svg" width="65.056" height="40.151" viewBox="0 0 65.056 40.151">
  <g id="speedometer_1_" data-name="speedometer(1)" transform="translate(0.001)">
    <path id="Path_1698" data-name="Path 1698" d="M110.315,89.617a24.083,24.083,0,0,0-7.057-16.389h0A24.131,24.131,0,0,0,62.072,89.619a.594.594,0,0,1-.6.575h49.433a.6.6,0,0,1-.595-.576Zm0,0" transform="translate(-53.666 -57.754)" fill="#e4eaf8"/>
    <path id="Path_1699" data-name="Path 1699" d="M73.58,73.5a23.708,23.708,0,0,1,14.862-7.235q-1.115-.1-2.249-.106A24.129,24.129,0,0,0,62.071,89.619a.594.594,0,0,1-.6.575h5.058A25.469,25.469,0,0,1,73.58,73.5Zm0,0" transform="translate(-53.666 -57.754)" fill="#d8dce5"/>
    <path id="Path_1700" data-name="Path 1700" d="M279.006,9.53A32.465,32.465,0,0,0,256,0V8.848a23.635,23.635,0,0,1,16.75,6.938Zm0,0" transform="translate(-223.473)" fill="#feca57"/>
    <path id="Path_1701" data-name="Path 1701" d="M74.934,9.53l6.257,6.257A23.638,23.638,0,0,1,97.94,8.848V0A32.455,32.455,0,0,0,74.934,9.53Zm0,0" transform="translate(-65.413)" fill="#15ba8b"/>
    <path id="Path_1702" data-name="Path 1702" d="M74.934,9.53l6.257,6.257A23.638,23.638,0,0,1,97.94,8.848V0A32.455,32.455,0,0,0,74.934,9.53Zm0,0" transform="translate(-65.413)" fill="#15ba8b"/>
    <path id="Path_1703" data-name="Path 1703" d="M0,97.309a.587.587,0,0,0,.585.6H8.265a.583.583,0,0,0,.584-.564,23.633,23.633,0,0,1,6.928-16.089L9.52,75A32.456,32.456,0,0,0,0,97.309Zm0,0" transform="translate(0 -65.47)" fill="#54a0ff"/>
    <path id="Path_1704" data-name="Path 1704" d="M78.963,9.329A33.133,33.133,0,0,1,97.319.055,32.471,32.471,0,0,0,74.933,9.577l1.99,1.99q.966-1.161,2.04-2.238Zm0,0" transform="translate(-65.413 -0.048)" fill="#11aa7b"/>
    <path id="Path_1705" data-name="Path 1705" d="M4.518,97.91a.593.593,0,0,1-.592-.608A32.789,32.789,0,0,1,11.51,76.99L9.52,75A32.456,32.456,0,0,0,0,97.309a.587.587,0,0,0,.585.6H4.518Zm0,0" transform="translate(0 -65.471)" fill="#338def"/>
    <path id="Path_1706" data-name="Path 1706" d="M394.081,75l-6.257,6.257a23.637,23.637,0,0,1,6.928,16.088.583.583,0,0,0,.584.565h7.681a.587.587,0,0,0,.585-.6A32.48,32.48,0,0,0,394.081,75Zm0,0" transform="translate(-338.547 -65.47)" fill="#ff6b6b"/>
    <path id="Path_1707" data-name="Path 1707" d="M205.98,151.236l4.752-15.376a.829.829,0,0,0-1.036-1.037l-15.376,4.752a9.323,9.323,0,1,0,11.66,11.66Zm0,0" transform="translate(-163.89 -117.66)" fill="#ff6b6b"/>
    <path id="Path_1708" data-name="Path 1708" d="M194.407,155.076a9.323,9.323,0,0,1,3.84-15.5l12.516-3.868a.828.828,0,0,0-1.067-.884l-15.376,4.752a9.323,9.323,0,0,0,4.691,18.026A9.222,9.222,0,0,1,194.407,155.076Zm0,0" transform="translate(-163.891 -117.66)" fill="#ee5253"/>
    <path id="Path_1709" data-name="Path 1709" d="M235.563,213.211a4,4,0,1,0,0,5.657A4,4,0,0,0,235.563,213.211Zm0,0" transform="translate(-199.671 -185.097)" fill="#ee5253"/>
    <path id="Path_1710" data-name="Path 1710" d="M234.738,212.578a4,4,0,1,0,0,6.93A4,4,0,0,1,234.738,212.578Zm0,0" transform="translate(-199.674 -185.1)" fill="#d83941"/>
  </g>
</svg>
