<svg xmlns="http://www.w3.org/2000/svg" width="65.642" height="65.642" viewBox="0 0 65.642 65.642">
  <g id="Group_483" data-name="Group 483" transform="translate(-1199.5 -2511.5)">
    <g id="_24-7helpdesk-solid" data-name="24-7helpdesk-solid" transform="translate(1529.8 2271.7)">
      <g id="Group_481" data-name="Group 481" transform="translate(-329.8 240.3)">
        <g id="path-1">
          <path id="Path_1681" data-name="Path 1681" d="M-298.063,304.258A30.766,30.766,0,0,1-328.8,273.521v-1.584A30.766,30.766,0,0,1-298.063,241.2h1.584a30.766,30.766,0,0,1,30.737,30.737v1.584a30.766,30.766,0,0,1-30.737,30.737Z" transform="translate(329.592 -240.487)" fill="#22273e"/>
          <path id="Path_1682" data-name="Path 1682" d="M-296.687,241.884a29.971,29.971,0,0,1,29.945,29.945v1.584a29.971,29.971,0,0,1-29.945,29.945h-1.584a29.971,29.971,0,0,1-29.945-29.945v-1.584a29.971,29.971,0,0,1,29.945-29.945h1.584m0-1.584h-1.584A31.51,31.51,0,0,0-329.8,271.829v1.584a31.51,31.51,0,0,0,31.529,31.529h1.584a31.51,31.51,0,0,0,31.529-31.529v-1.584A31.459,31.459,0,0,0-296.687,240.3Z" transform="translate(329.8 -240.3)" fill="#fff"/>
        </g>
      </g>
      <circle id="Ellipse_87" data-name="Ellipse 87" cx="10.853" cy="10.853" r="10.853" transform="translate(-308.332 262.006)" fill="#005eb8"/>
      <g id="Group_482" data-name="Group 482" transform="translate(-329.8 240.3)">
        <path id="path-1_1_" d="M-298.271,240.3h1.584a31.51,31.51,0,0,1,31.529,31.529v1.584a31.51,31.51,0,0,1-31.529,31.529h-1.584A31.51,31.51,0,0,1-329.8,273.413v-1.584A31.56,31.56,0,0,1-298.271,240.3Z" transform="translate(329.8 -240.3)" fill="none" stroke="#71abf6" stroke-width="1"/>
      </g>
      <g id="_Clip_Group_" transform="translate(-315.924 250.757)">
        <path id="_Clipping_Path_2" d="M-291.541,257.144a18.4,18.4,0,0,0-20.6,16,18.4,18.4,0,0,0,16,20.6,18.4,18.4,0,0,0,20.6-16,22.379,22.379,0,0,0,.158-2.3,18.234,18.234,0,0,0-7.209-14.576l-1.822,1.347.951.713a16.216,16.216,0,0,1,2.218,22.815,16.216,16.216,0,0,1-22.815,2.218,16.216,16.216,0,0,1-2.218-22.815,16.375,16.375,0,0,1,12.6-5.941,20.874,20.874,0,0,1,2.218.158,23.011,23.011,0,0,1-1.267,3.565l6.258-4.832-6.337-4.595A16.628,16.628,0,0,1-291.541,257.144Z" transform="translate(312.284 -253.5)" fill="#fff"/>
      </g>
      <g id="_Clip_Group_2" transform="translate(-306.034 269.928)">
        <path id="_Compound_Clipping_Path_2" d="M-286.491,283.008h1.347l2.06-4.2v-.951h-3.8v.951h2.535v.079Zm-2.377.951,1.505-6.1h-1.188l-1.505,6.1Zm-4.991-2.852c.555-1.109.951-1.664,1.347-2.377h.079v2.377Zm1.426,1.743h1.268v-.792h.634v-1.03h-.634V277.7h-1.822c-.713,1.03-1.347,2.139-1.98,3.248v1.109h2.535v.792Zm-7.367-3.406h1.188a.71.71,0,0,1,.713-.713.617.617,0,0,1,.713.555v.079c0,.317-.158.555-.951,1.268l-1.664,1.505v.871h3.882v-1.03h-2.218V281.9l.871-.792c.951-.792,1.267-1.347,1.267-1.9,0-.871-.792-1.505-1.9-1.505a1.751,1.751,0,0,0-1.9,1.743Z" transform="translate(299.8 -277.7)" fill="#eee"/>
      </g>
    </g>
  </g>
</svg>
