<svg xmlns="http://www.w3.org/2000/svg" width="68.766" height="68.766" viewBox="0 0 68.766 68.766">
  <g id="devops_1" transform="translate(332 -238)">
    <g id="Rectangle-290" transform="translate(-330 240)">
      <g id="Group_484" data-name="Group 484">
        <path id="path-1" d="M-298.407,240h1.58a31.584,31.584,0,0,1,31.593,31.593v1.58a31.584,31.584,0,0,1-31.593,31.593h-1.58A31.584,31.584,0,0,1-330,273.173v-1.58A31.584,31.584,0,0,1-298.407,240Z" transform="translate(330 -240)" fill="#22273e" stroke="#fff" stroke-width="4"/>
      </g>
      <g id="Group_485" data-name="Group 485">
        <path id="path-1_1_" d="M-298.407,240h1.58a31.584,31.584,0,0,1,31.593,31.593v1.58a31.584,31.584,0,0,1-31.593,31.593h-1.58A31.584,31.584,0,0,1-330,273.173v-1.58A31.584,31.584,0,0,1-298.407,240Z" transform="translate(330 -240)" fill="none" stroke="#71abf6" stroke-width="1"/>
      </g>
    </g>
    <g id="Group_490" data-name="Group 490" transform="translate(-321.233 260.93)">
      <g id="Group_487" data-name="Group 487">
        <g id="Group_486" data-name="Group 486">
          <path id="Path_1683" data-name="Path 1683" d="M-283.595,266.658h-.79c-.079,0-8.925-.632-12.558,11.058-3.08,10.268-10.347,9.794-10.663,9.715H-308a9.553,9.553,0,0,1-9.083-9.557,9.539,9.539,0,0,1,9.557-9.557,9.407,9.407,0,0,1,7.977,4.423l1.5-1.027a11.336,11.336,0,0,0-9.557-5.213A11.292,11.292,0,0,0-318.9,277.795a11.25,11.25,0,0,0,10.821,11.295h.711c1.58,0,9-.553,12.242-11.058,3.08-10.268,10.347-9.794,10.663-9.715h.711a9.6,9.6,0,0,1,8.767,9.478,9.539,9.539,0,0,1-9.557,9.557,9.407,9.407,0,0,1-7.977-4.423l-1.5,1.027a11.235,11.235,0,0,0,9.557,5.213,11.292,11.292,0,0,0,11.295-11.295A11.45,11.45,0,0,0-283.595,266.658Z" transform="translate(318.9 -266.5)" fill="#fff" stroke="#fff" stroke-miterlimit="10" stroke-width="2"/>
        </g>
      </g>
      <g id="Group_488" data-name="Group 488" transform="translate(5.213 9.083)">
        <path id="Path_1684" data-name="Path 1684" d="M-308.43,280.369a2.527,2.527,0,0,1-.632,1.817,2.72,2.72,0,0,1-1.9.553H-312.3V278h1.422a2.848,2.848,0,0,1,1.738.553A2.129,2.129,0,0,1-308.43,280.369Zm-.553.079a2.061,2.061,0,0,0-.474-1.422,1.931,1.931,0,0,0-1.422-.474h-.79v3.791h.632a1.812,1.812,0,0,0,1.422-.474A1.54,1.54,0,0,0-308.983,280.448Z" transform="translate(312.3 -278)" fill="#fff" stroke="#fff" stroke-miterlimit="10" stroke-width="0.5"/>
        <path id="Path_1685" data-name="Path 1685" d="M-303.315,282.818H-306V278h2.685v.474h-2.133v1.5h1.975v.474h-1.975v1.738h2.133Z" transform="translate(310.976 -278)" fill="#fff" stroke="#fff" stroke-miterlimit="10" stroke-width="0.5"/>
        <path id="Path_1686" data-name="Path 1686" d="M-298.1,278.1h.553l-1.738,4.818h-.474L-301.5,278.1h.553l1.106,3.08c.158.395.237.711.395,1.106a6.187,6.187,0,0,1,.395-1.106Z" transform="translate(310.03 -278.021)" fill="#fff" stroke="#fff" stroke-miterlimit="10" stroke-width="0.5"/>
      </g>
      <g id="Group_489" data-name="Group 489" transform="translate(28.671 9.083)">
        <path id="Path_1687" data-name="Path 1687" d="M-278.335,280.448a3.515,3.515,0,0,1-.553,1.817,2.205,2.205,0,0,1-1.58.632,1.96,1.96,0,0,1-1.58-.632,2.633,2.633,0,0,1-.553-1.817,3.1,3.1,0,0,1,.553-1.817,2.263,2.263,0,0,1,1.659-.632,2.205,2.205,0,0,1,1.58.632A3.824,3.824,0,0,1-278.335,280.448Zm-3.712,0a2.182,2.182,0,0,0,.395,1.422,1.386,1.386,0,0,0,1.185.474,1.81,1.81,0,0,0,1.185-.474,2.345,2.345,0,0,0,.395-1.422,2.182,2.182,0,0,0-.395-1.422c-.316-.395-.632-.395-1.185-.395a1.81,1.81,0,0,0-1.185.474C-282.047,279.343-282.047,279.817-282.047,280.448Z" transform="translate(282.6 -278)" fill="#fff" stroke="#fff" stroke-miterlimit="10" stroke-width="0.5"/>
        <path id="Path_1688" data-name="Path 1688" d="M-272.915,279.561a2.128,2.128,0,0,1-.395,1.185,1.941,1.941,0,0,1-1.343.395h-.474v1.9h-.474V278.3h1.264A1.149,1.149,0,0,1-272.915,279.561Zm-2.37.948h.474a1.671,1.671,0,0,0,1.106-.316.829.829,0,0,0,.395-.711c0-.395-.158-.474-.395-.711s-.474-.237-1.027-.237h-.553Z" transform="translate(281.129 -278.06)" fill="#fff" stroke="#fff" stroke-miterlimit="10" stroke-width="0.5"/>
        <path id="Path_1689" data-name="Path 1689" d="M-268.278,281.575a1.663,1.663,0,0,1-.395,1.027,1.74,1.74,0,0,1-1.264.395,2.554,2.554,0,0,1-1.264-.237v-.474c.237.079.395.158.632.237a1.739,1.739,0,0,0,.632.079,1.419,1.419,0,0,0,.869-.237.684.684,0,0,0,.316-.553c0-.158,0-.395-.079-.395a.789.789,0,0,0-.395-.316c-.158-.079-.395-.237-.711-.395-.395-.158-.711-.395-.948-.474a1.079,1.079,0,0,1-.316-.869,1.132,1.132,0,0,1,.395-.869,1.712,1.712,0,0,1,1.106-.395,2.318,2.318,0,0,1,1.264.316l-.237.395a3.309,3.309,0,0,0-1.185-.316.777.777,0,0,0-.632.237,1.2,1.2,0,0,0-.316.474c0,.158,0,.395.079.395a.556.556,0,0,0,.395.316,4.692,4.692,0,0,0,.632.316c.474.237.869.395,1.106.553A1.014,1.014,0,0,1-268.278,281.575Z" transform="translate(280.204 -278.021)" fill="#fff" stroke="#fff" stroke-miterlimit="10" stroke-width="0.5"/>
      </g>
    </g>
  </g>
</svg>
