<svg xmlns="http://www.w3.org/2000/svg" width="67.396" height="67.314" viewBox="0 0 67.396 67.314">
  <g id="Group_467" data-name="Group 467" transform="translate(-416.704 -2504.5)">
    <g id="Group_463" data-name="Group 463" transform="translate(417.204 2505)">
      <g id="path-1">
        <path id="Path_1667" data-name="Path 1667" d="M-297.229,305.987a31.6,31.6,0,0,1-31.57-31.57v-1.627A31.461,31.461,0,0,1-297.311,241.3h1.627a31.6,31.6,0,0,1,31.57,31.57V274.5a31.6,31.6,0,0,1-31.57,31.57l-1.546-.081Z" transform="translate(329.614 -240.486)" fill="#292929"/>
        <path id="Path_1668" data-name="Path 1668" d="M-295.788,241.927a30.784,30.784,0,0,1,30.757,30.757v1.627a30.784,30.784,0,0,1-30.757,30.757h-1.627a30.959,30.959,0,0,1-30.757-30.838V272.6A30.7,30.7,0,0,1-297.5,241.927h1.709m0-1.627h-1.627A32.347,32.347,0,0,0-329.8,272.6v1.627a32.364,32.364,0,0,0,32.384,32.384h1.627a32.347,32.347,0,0,0,32.3-32.384V272.6a32.174,32.174,0,0,0-32.3-32.3Z" transform="translate(329.8 -240.3)" fill="#fff"/>
      </g>
    </g>
    <g id="Group_464" data-name="Group 464" transform="translate(417.204 2505)">
      <path id="path-1_1_" d="M-297.416,240.3h1.627A32.3,32.3,0,0,1-263.4,272.6v1.627a32.364,32.364,0,0,1-32.384,32.384h-1.627A32.416,32.416,0,0,1-329.8,274.23V272.6A32.347,32.347,0,0,1-297.416,240.3Z" transform="translate(329.8 -240.3)" fill="none" stroke="#71abf6" stroke-width="1"/>
    </g>
    <g id="Group_466" data-name="Group 466" transform="translate(434.047 2523.959)">
      <g id="Group_465" data-name="Group 465">
        <path id="Path_1669" data-name="Path 1669" d="M-277.285,264.414a2.524,2.524,0,0,0-1.953-.814h-27.1a2.644,2.644,0,0,0-1.953.814,2.524,2.524,0,0,0-.814,1.953v18.47a2.644,2.644,0,0,0,.814,1.953,2.524,2.524,0,0,0,1.953.814h9.194a3.686,3.686,0,0,1-.244,1.3,5.61,5.61,0,0,1-.57,1.22,1.873,1.873,0,0,0-.244.732.793.793,0,0,0,.325.732.994.994,0,0,0,.732.325h8.706a.793.793,0,0,0,.732-.325.994.994,0,0,0,.325-.732,1.874,1.874,0,0,0-.244-.732c-.163-.325-.325-.732-.57-1.22a4.046,4.046,0,0,1-.244-1.3h9.194a2.645,2.645,0,0,0,1.953-.814,2.524,2.524,0,0,0,.814-1.953v-18.47A2.645,2.645,0,0,0-277.285,264.414Zm-1.383,18.064c0,.163-.081.244-.163.407a.621.621,0,0,1-.407.163h-27.1c-.163,0-.244-.081-.407-.163a.621.621,0,0,1-.163-.407V266.366c0-.163.081-.244.163-.407a.621.621,0,0,1,.407-.163h27.1c.163,0,.244.081.407.163a.621.621,0,0,1,.163.407v16.111Z" transform="translate(309.1 -263.6)" fill="#fff"/>
      </g>
      <path id="Path_1670" data-name="Path 1670" d="M-303.7,277.084h5.452l2.034-6.184,2.929,9.927,3.336-8.055,2.116,4.394h8.055" transform="translate(308.094 -264.96)" fill="none" stroke="#fff" stroke-linecap="round" stroke-linejoin="round" stroke-miterlimit="10" stroke-width="2"/>
    </g>
  </g>
</svg>
