<svg xmlns="http://www.w3.org/2000/svg" width="48.856" height="52.114" viewBox="0 0 48.856 52.114">
  <g id="usability" transform="translate(-16)">
    <path id="Path_1711" data-name="Path 1711" d="M78.488,101.182,72.462,104.8a1.527,1.527,0,1,0,1.571,2.618l6.175-3.7Z" transform="translate(-50.049 -90.883)" fill="#5a5a5a"/>
    <path id="Path_1712" data-name="Path 1712" d="M272.413,72.408a1.663,1.663,0,0,1-.191-.012l-15.338-1.917a1.527,1.527,0,0,1,.379-3.03L272.6,69.366a1.527,1.527,0,0,1-.188,3.042Z" transform="translate(-215.165 -60.572)" fill="#444"/>
    <path id="Path_1713" data-name="Path 1713" d="M410.58,69.161a4.58,4.58,0,1,1,4.58-4.58A4.585,4.585,0,0,1,410.58,69.161Z" transform="translate(-350.304 -53.893)" fill="#ff7816"/>
    <path id="Path_1714" data-name="Path 1714" d="M20.58,129.161a4.58,4.58,0,1,1,4.58-4.58A4.585,4.585,0,0,1,20.58,129.161Z" transform="translate(0 -107.786)" fill="#ff9f00"/>
    <path id="Path_1715" data-name="Path 1715" d="M128.634,0a7.634,7.634,0,1,0,7.634,7.634A7.637,7.637,0,0,0,128.634,0Z" transform="translate(-94.313)" fill="#ff7816"/>
    <path id="Path_1716" data-name="Path 1716" d="M203.634,7.634A7.637,7.637,0,0,1,196,15.268V0A7.637,7.637,0,0,1,203.634,7.634Z" transform="translate(-161.679)" fill="#ff4b00"/>
    <path id="Path_1717" data-name="Path 1717" d="M139.589,75.634V88.459c0,6.412-3.054,7.939-3.054,12.581v3.44a1.512,1.512,0,0,1-1.527,1.527H113.634a1.512,1.512,0,0,1-1.527-1.527v-2.524a7.652,7.652,0,0,0-2.229-5.4c-.794-1.008-3.878-2.809-3.878-7.023V78.321a3.054,3.054,0,0,1,6.107,0V63.42a3.411,3.411,0,0,1,3.054-3.389,1.487,1.487,0,0,1,.366-.031,3.465,3.465,0,0,1,3.5,3.42v9.161a3.378,3.378,0,0,1,3.4-3.42,3.414,3.414,0,0,1,3.42,3.42,3.414,3.414,0,0,1,3.42-3.42,3.465,3.465,0,0,1,3.5,3.42v3.054a3.378,3.378,0,0,1,3.4-3.42A3.414,3.414,0,0,1,139.589,75.634Z" transform="translate(-80.839 -53.893)" fill="#ffcebf"/>
    <path id="Path_1718" data-name="Path 1718" d="M220.428,75.634V88.459c0,6.412-3.054,7.939-3.054,12.581v3.44a1.512,1.512,0,0,1-1.527,1.527H196V60.031a1.487,1.487,0,0,1,.366-.031,3.465,3.465,0,0,1,3.5,3.42v9.161a3.378,3.378,0,0,1,3.4-3.42,3.414,3.414,0,0,1,3.42,3.42,3.414,3.414,0,0,1,3.42-3.42,3.465,3.465,0,0,1,3.5,3.42v3.054a3.378,3.378,0,0,1,3.4-3.42A3.414,3.414,0,0,1,220.428,75.634Z" transform="translate(-161.679 -53.893)" fill="#ffbfab"/>
  </g>
</svg>
