<svg xmlns="http://www.w3.org/2000/svg" width="40.409" height="40.409" viewBox="0 0 40.409 40.409"><g transform="translate(0 0)"><path d="M25.231,25.278a8.876,8.876,0,0,1,10.935-1.323,17.84,17.84,0,1,0-17.146,12.9,18.013,18.013,0,0,0,3.048-.259.592.592,0,0,1,.2,1.167,19.212,19.212,0,0,1-3.249.276A19.021,19.021,0,0,1,5.571,5.571a19.027,19.027,0,0,1,31.487,19.5.592.592,0,0,1-.919.293,7.684,7.684,0,1,0,2.115,2.417l-6.949,6.948a.592.592,0,0,1-.837,0L26.5,30.765a.592.592,0,1,1,.837-.837l3.549,3.549L39.4,24.965a.592.592,0,0,1,.837.837l-1.117,1.117a8.878,8.878,0,1,1-16.339,3.1,13.085,13.085,0,0,1-1.972.144,6.8,6.8,0,0,1-5.932-2.742c-.053-.066-.113-.141-.164-.2l-.115.048a6.166,6.166,0,0,1-2.637.525.592.592,0,0,1,0-1.184,5.024,5.024,0,0,0,2.178-.432,1.3,1.3,0,0,1,.92-.148,1.673,1.673,0,0,1,.741.652,5.658,5.658,0,0,0,5.009,2.3,11.44,11.44,0,0,0,2.285-.218,8.816,8.816,0,0,1,.456-1.121,6.506,6.506,0,0,1-1.986.3.592.592,0,1,1,0-1.184,5.228,5.228,0,0,0,3.668-1.484Zm-6.211,6.844a8.306,8.306,0,0,1-6.311-2.716.592.592,0,0,1,.883-.788,7.138,7.138,0,0,0,5.427,2.32.592.592,0,0,1,0,1.184Zm.522-4.474a.59.59,0,0,1-.181-.029A5.774,5.774,0,0,1,16.1,24.971a7.364,7.364,0,0,1-.7-1.678,4.733,4.733,0,0,1-4.114,2.385.592.592,0,1,1,0-1.184c1.393,0,3.75-.963,3.75-4.572V16.994c0-4.825,2.061-6.544,3.99-6.544,1.595,0,2.875,1.123,3.512,3.08a.592.592,0,0,1-1.126.366c-.275-.845-.951-2.263-2.386-2.263-1.731,0-2.806,2.054-2.806,5.36v3.54c0,3.07,1.279,5.242,3.509,5.959a.592.592,0,0,1-.181,1.156Zm2.141-1.971a3.983,3.983,0,0,1-3.374-1.695A5.953,5.953,0,0,1,17.3,20.534v-3.54c0-1.952.3-4.279,1.725-4.279a1.149,1.149,0,0,1,.858.405c.8.872,1.014,3.135.865,4.991a.592.592,0,0,1-1.18-.095,11.242,11.242,0,0,0-.111-2.886,2.649,2.649,0,0,0-.444-1.21c-.193.185-.528,1.089-.528,3.073,0,2.07.617,3.407,1.573,3.407.439,0,1.774,0,1.774-3.407,0-.366-.013-.723-.04-1.061a.592.592,0,1,1,1.18-.093c.029.368.044.757.044,1.154,0,3.795-1.608,4.591-2.958,4.591a2.2,2.2,0,0,1-1.559-.654c.125,1.832,1.126,3.563,3.19,3.563a3.941,3.941,0,0,0,3.162-1.86,9.521,9.521,0,0,0,1.512-5.64A11.927,11.927,0,0,0,24.41,9.952a7.374,7.374,0,0,0-1.489-1.538.592.592,0,0,1,.718-.942,8.556,8.556,0,0,1,1.729,1.784,13.086,13.086,0,0,1,2.173,7.737c0,5.7-2.947,8.684-5.858,8.684Zm-.53-2.089a.592.592,0,1,1,0-1.184c2.019,0,2.939-2.8,2.939-5.411a10.178,10.178,0,0,0-1.425-5.682,4.391,4.391,0,0,0-7.292,0,7.278,7.278,0,0,0-1.074,2.54.592.592,0,1,1-1.151-.277,8.449,8.449,0,0,1,1.268-2.959,5.574,5.574,0,0,1,9.206,0,11.194,11.194,0,0,1,1.652,6.379,9.621,9.621,0,0,1-.981,4.494,3.583,3.583,0,0,1-3.142,2.1ZM11.092,23.56a.592.592,0,1,1,0-1.184c1.048,0,1.673-.917,1.673-2.454V16.994c0-.388.014-.776.041-1.153a.592.592,0,1,1,1.181.084c-.025.349-.038.709-.038,1.069v2.928C13.949,22.607,12.41,23.56,11.092,23.56Zm0-2.494a.592.592,0,0,1-.592-.592v-3.48a13.086,13.086,0,0,1,2.173-7.737,7.719,7.719,0,0,1,6.348-3.337,7.628,7.628,0,0,1,2.6.448.592.592,0,0,1-.4,1.114,6.445,6.445,0,0,0-2.2-.377,6.563,6.563,0,0,0-5.39,2.849,11.927,11.927,0,0,0-1.947,7.042v3.48a.592.592,0,0,1-.592.592Z" transform="translate(0 0)" fill="#fff"/></g></svg>