<svg xmlns="http://www.w3.org/2000/svg" width="38.098" height="40.506" viewBox="0 0 38.098 40.506">
  <path id="digital" d="M52.23,27.923l-2.837,4.914a.677.677,0,0,1-.84.289L44.376,31.44a.677.677,0,1,1,.507-1.256l3.63,1.465,2.248-3.895-3.081-2.408a.677.677,0,0,1-.23-.732,14.908,14.908,0,0,0,0-8.723.677.677,0,0,1,.23-.732l3.081-2.408L48.514,8.857l-3.63,1.465a.677.677,0,0,1-.75-.167,14.759,14.759,0,0,0-7.549-4.362.677.677,0,0,1-.52-.566L35.52,1.355h-4.5l-.545,3.873a.677.677,0,0,1-.52.566,14.759,14.759,0,0,0-7.549,4.362.677.677,0,0,1-.75.167l-3.63-1.465-2.249,3.895,3.081,2.408a.677.677,0,0,1,.23.732,14.908,14.908,0,0,0,0,8.723.677.677,0,0,1-.23.732l-3.081,2.408,2.249,3.895,3.63-1.465a.677.677,0,0,1,.75.167,14.759,14.759,0,0,0,7.549,4.362.677.677,0,0,1,.52.566l.545,3.873h4.5l.545-3.873a.677.677,0,0,1,.52-.566A14.71,14.71,0,0,0,41.07,32.87a.677.677,0,0,1,.714,1.152,16.069,16.069,0,0,1-4.441,1.9l-.563,4a.677.677,0,0,1-.671.583H30.434a.677.677,0,0,1-.671-.583l-.563-4a16.1,16.1,0,0,1-7.459-4.311L17.99,33.126a.677.677,0,0,1-.84-.289l-2.837-4.914a.677.677,0,0,1,.169-.872l3.183-2.488a16.275,16.275,0,0,1,0-8.618l-3.183-2.488a.677.677,0,0,1-.169-.872L17.15,7.669a.677.677,0,0,1,.84-.289l3.751,1.514A16.1,16.1,0,0,1,29.2,4.583l.563-4A.677.677,0,0,1,30.434,0h5.674a.677.677,0,0,1,.671.583l.563,4A16.1,16.1,0,0,1,44.8,8.894L48.552,7.38a.677.677,0,0,1,.84.289l2.837,4.914a.677.677,0,0,1-.169.872l-3.183,2.488a16.275,16.275,0,0,1,0,8.618L52.06,27.05a.677.677,0,0,1,.169.872ZM32.162,23.475l3.386-5.757a.677.677,0,0,0-1.168-.687l-3.386,5.757a.677.677,0,0,0,1.168.687Zm-2.645-5.818a.677.677,0,0,0-.958,0l-2.118,2.118a.678.678,0,0,0,0,.958l2.118,2.118a.677.677,0,0,0,.958-.958l-1.639-1.639,1.639-1.639a.677.677,0,0,0,0-.958Zm7.9,5.391a.675.675,0,0,0,.479-.2l2.118-2.118a.678.678,0,0,0,0-.958L37.9,17.656a.677.677,0,1,0-.958.958l1.639,1.639-1.639,1.639a.678.678,0,0,0,.479,1.156Zm-8.112,8.015a11.511,11.511,0,1,0-4-2.495.677.677,0,0,0,.937-.978,10.17,10.17,0,1,1,3.534,2.2.677.677,0,1,0-.466,1.272Z" transform="translate(-14.222)" fill="#fff"/>
</svg>
