<svg xmlns="http://www.w3.org/2000/svg" width="34.177" height="40.506" viewBox="0 0 34.177 40.506"><g transform="translate(-40 0)"><path d="M73.2,6.559,57.7.121a1.582,1.582,0,0,0-1.213,0L40.976,6.559A1.582,1.582,0,0,0,40,8.02v7.826A26.5,26.5,0,0,0,56.491,40.389a1.583,1.583,0,0,0,1.2,0A26.5,26.5,0,0,0,74.177,15.847V8.02A1.582,1.582,0,0,0,73.2,6.559Zm-2.189,9.288A23.338,23.338,0,0,1,57.088,37.205,23.339,23.339,0,0,1,43.165,15.847V9.077L57.088,3.3,71.012,9.077ZM55.34,21.18l6.8-6.8a1.582,1.582,0,1,1,2.238,2.238l-7.92,7.92a1.582,1.582,0,0,1-2.238,0L49.8,20.115a1.582,1.582,0,0,1,2.238-2.238Z" transform="translate(0 0)" fill="#fff"/></g></svg>