<svg xmlns="http://www.w3.org/2000/svg" width="17.245" height="23.026" viewBox="0 0 17.245 23.026"><g transform="translate(-1277 -143.975)"><path d="M79.03,2.89h-.409V2.481A2.484,2.484,0,0,0,76.14,0h-6.5a2.484,2.484,0,0,0-2.481,2.481V2.89h-.409a2.484,2.484,0,0,0-2.481,2.481v16.98a.675.675,0,0,0,.675.675h15.9a.675.675,0,0,0,.675-.675V5.371A2.484,2.484,0,0,0,79.03,2.89ZM68.505,2.481a1.133,1.133,0,0,1,1.132-1.132h6.5a1.133,1.133,0,0,1,1.132,1.132V2.89H68.505ZM73.972,18.69A1.133,1.133,0,0,1,75.1,19.822v1.854H73.563V18.69Zm-1.758,2.986H70.673V19.822A1.133,1.133,0,0,1,71.8,18.69h.409Zm7.948,0H76.453V19.822a2.484,2.484,0,0,0-2.481-2.481H71.8a2.484,2.484,0,0,0-2.481,2.481v1.854H65.615V5.371a1.133,1.133,0,0,1,1.132-1.132H79.03a1.133,1.133,0,0,1,1.132,1.132V21.676Z" transform="translate(1212.734 143.975)" fill="#006fff"/><path d="M145.275,128.529a.674.674,0,1,0,.477.2A.68.68,0,0,0,145.275,128.529Z" transform="translate(1136.124 21.226)" fill="#006fff"/><path d="M209.545,128.529a.675.675,0,1,0,.477.2A.68.68,0,0,0,209.545,128.529Z" transform="translate(1074.744 21.226)" fill="#006fff"/><path d="M145.275,192.8a.674.674,0,1,0,.477.2A.68.68,0,0,0,145.275,192.8Z" transform="translate(1136.124 -40.155)" fill="#006fff"/><path d="M209.545,192.8a.674.674,0,1,0,.477.2A.679.679,0,0,0,209.545,192.8Z" transform="translate(1074.744 -40.155)" fill="#006fff"/><path d="M145.275,257.069a.674.674,0,1,0,.477.2A.68.68,0,0,0,145.275,257.069Z" transform="translate(1136.124 -101.534)" fill="#006fff"/><path d="M209.545,257.069a.674.674,0,1,0,.477.2A.68.68,0,0,0,209.545,257.069Z" transform="translate(1074.744 -101.534)" fill="#006fff"/><path d="M145.275,321.33a.675.675,0,1,0,.477.2A.679.679,0,0,0,145.275,321.33Z" transform="translate(1136.124 -162.904)" fill="#006fff"/><path d="M209.545,321.33a.676.676,0,1,0,.477.2A.678.678,0,0,0,209.545,321.33Z" transform="translate(1074.744 -162.904)" fill="#006fff"/><path d="M273.813,128.529a.674.674,0,1,0,.477.2A.679.679,0,0,0,273.813,128.529Z" transform="translate(1013.365 21.226)" fill="#006fff"/><path d="M338.074,128.529a.674.674,0,1,0,.477.2A.68.68,0,0,0,338.074,128.529Z" transform="translate(951.996 21.226)" fill="#006fff"/><path d="M273.8,192.8a.674.674,0,1,0,.477.2A.679.679,0,0,0,273.8,192.8Z" transform="translate(1013.374 -40.155)" fill="#006fff"/><path d="M338.074,192.8a.674.674,0,1,0,.477.2A.68.68,0,0,0,338.074,192.8Z" transform="translate(951.996 -40.155)" fill="#006fff"/><path d="M273.813,257.069a.674.674,0,1,0,.477.2A.679.679,0,0,0,273.813,257.069Z" transform="translate(1013.365 -101.534)" fill="#006fff"/><path d="M338.074,257.069a.674.674,0,1,0,.477.2A.68.68,0,0,0,338.074,257.069Z" transform="translate(951.996 -101.534)" fill="#006fff"/><path d="M273.8,321.33a.675.675,0,1,0,.477.2A.678.678,0,0,0,273.8,321.33Z" transform="translate(1013.374 -162.904)" fill="#006fff"/><path d="M338.074,321.33a.675.675,0,1,0,.477.2A.679.679,0,0,0,338.074,321.33Z" transform="translate(951.996 -162.904)" fill="#006fff"/></g></svg>