<svg xmlns="http://www.w3.org/2000/svg" width="27.348" height="22.676" viewBox="0 0 27.348 22.676"><g transform="translate(-1069.326 -143.324)"><g transform="translate(1069.326 153.256)"><path d="M23.342,231.735H20.665a4,4,0,0,0-1.053.141,4.009,4.009,0,0,0-3.572-2.2H11.308a4.009,4.009,0,0,0-3.572,2.2,4,4,0,0,0-1.053-.141H4.006A4.011,4.011,0,0,0,0,235.741v4.279a2.406,2.406,0,0,0,2.4,2.4H24.944a2.406,2.406,0,0,0,2.4-2.4v-4.279A4.011,4.011,0,0,0,23.342,231.735ZM7.3,233.686v7.135H2.4a.8.8,0,0,1-.8-.8v-4.279a2.406,2.406,0,0,1,2.4-2.4H6.683a2.4,2.4,0,0,1,.629.084C7.306,233.509,7.3,233.6,7.3,233.686Zm11.142,7.135H8.9v-7.135a2.406,2.406,0,0,1,2.4-2.4H16.04a2.406,2.406,0,0,1,2.4,2.4Zm7.3-.8a.8.8,0,0,1-.8.8h-4.9v-7.135c0-.089,0-.177-.01-.265a2.4,2.4,0,0,1,.629-.084h2.677a2.406,2.406,0,0,1,2.4,2.4Z" transform="translate(0 -229.68)" fill="#006fff"/></g><g transform="translate(1071.111 147.745)"><g transform="translate(0 0)"><path d="M36.974,126.5a3.56,3.56,0,1,0,3.56,3.56A3.564,3.564,0,0,0,36.974,126.5Zm0,5.517a1.957,1.957,0,1,1,1.957-1.957A1.96,1.96,0,0,1,36.974,132.021Z" transform="translate(-33.414 -126.504)" fill="#006fff"/></g></g><g transform="translate(1078.244 143.324)"><g transform="translate(0 0)"><path d="M171.718,43.729a4.756,4.756,0,1,0,4.756,4.756A4.761,4.761,0,0,0,171.718,43.729Zm0,7.909a3.153,3.153,0,1,1,3.153-3.153A3.157,3.157,0,0,1,171.718,51.638Z" transform="translate(-166.962 -43.729)" fill="#006fff"/></g></g><g transform="translate(1087.77 147.745)"><g transform="translate(0 0)"><path d="M348.854,126.5a3.56,3.56,0,1,0,3.56,3.56A3.564,3.564,0,0,0,348.854,126.5Zm0,5.517a1.957,1.957,0,1,1,1.957-1.957A1.96,1.96,0,0,1,348.854,132.021Z" transform="translate(-345.294 -126.504)" fill="#006fff"/></g></g></g></svg>