<svg xmlns="http://www.w3.org/2000/svg" width="23" height="23" viewBox="0 0 23 23"><g transform="translate(-1071.5 -216)"><path d="M23,15.565A7.452,7.452,0,0,0,17.556,8.4,8.782,8.782,0,1,0,1.218,13.246L.032,17.532l4.286-1.185A8.75,8.75,0,0,0,8.4,17.555a7.437,7.437,0,0,0,10.947,4.411l3.619,1-1-3.619A7.408,7.408,0,0,0,23,15.565ZM4.531,14.889l-2.566.71.71-2.566-.162-.253a7.432,7.432,0,1,1,2.271,2.271Zm16.5,6.145-1.9-.527-.254.165a6.089,6.089,0,0,1-9.082-3.168,8.8,8.8,0,0,0,7.711-7.711,6.089,6.089,0,0,1,3.168,9.082l-.165.254Zm0,0" transform="translate(1071.5 216)" fill="#006fff"/><path d="M180.5,271h1.348v1.348H180.5Zm0,0" transform="translate(899.108 -42.826)" fill="#006fff"/><path d="M139.543,92.7a1.334,1.334,0,0,1-.439.995l-1.583,1.449v1.644h1.348V95.732l1.145-1.048A2.7,2.7,0,1,0,135.5,92.7h1.348a1.348,1.348,0,0,1,2.7,0Zm0,0" transform="translate(942.087 130.043)" fill="#006fff"/></g></svg>