<svg xmlns="http://www.w3.org/2000/svg" width="22.652" height="22.652" viewBox="0 0 22.652 22.652"><path d="M21.989,9.335h-.664V.664A.664.664,0,0,0,20.661,0H16.68a.664.664,0,0,0-.664.664v.664H12.034a.664.664,0,0,0-.552,1.032l1.082,1.623L11.482,5.6a.664.664,0,0,0,.552,1.032H16.68a.664.664,0,0,0,.664-.664V5.309H20V9.335H16.68a.664.664,0,0,0-.664.664v3.318H11.37a.664.664,0,0,0-.664.664v1.991H6.017a.664.664,0,0,0-.664.664v1.991H.664A.664.664,0,0,0,0,19.29v2.7a.664.664,0,0,0,.664.664H21.989a.664.664,0,0,0,.664-.664V10A.664.664,0,0,0,21.989,9.335ZM16.016,5.309H13.274l.639-.959a.664.664,0,0,0,0-.736l-.639-.959h2.742Zm1.327-3.982H20V3.982H17.343ZM1.327,19.954H5.353v1.372H1.327ZM6.681,17.3h4.026v4.026H6.681Zm5.353-2.655h3.982v6.681H12.034Zm9.291,6.681H17.343V10.663h3.982Z" fill="#006fff"/></svg>