<svg xmlns="http://www.w3.org/2000/svg" width="22.58" height="22.659" viewBox="0 0 22.58 22.659"><g transform="translate(-0.894)"><path d="M245.482,2.879a.446.446,0,0,0,.446-.446V.446a.446.446,0,1,0-.891,0V2.434A.446.446,0,0,0,245.482,2.879Z" transform="translate(-233.337)" fill="#006fff"/><path d="M23.039,93.83l-.787-.785a1.493,1.493,0,0,0-1.766-.252L19,91.31l.072-.072a1.547,1.547,0,0,0,0-2.184,1.53,1.53,0,0,0-.776-.42,1.556,1.556,0,0,0,.061-.434,1.543,1.543,0,0,0-1.228-1.512,1.556,1.556,0,0,0,.061-.434,1.542,1.542,0,0,0-1.228-1.511,1.542,1.542,0,0,0-1.649-1.969l-2.94-.557a1.588,1.588,0,0,0-1.362.181.8.8,0,0,0-.067.07,1.55,1.55,0,0,0-1.626.358,1.533,1.533,0,0,0-.452,1.093,1.558,1.558,0,0,0,.061.434A1.544,1.544,0,0,0,6.7,85.864a1.554,1.554,0,0,0,.062.435,1.545,1.545,0,0,0-.958,2.385,1.545,1.545,0,0,0-.593,2.555l.072.072L3.8,92.792a1.49,1.49,0,0,0-1.686.292l-.788.786a1.489,1.489,0,0,0,0,2.1l.983.982a.446.446,0,1,0,.63-.631l-.983-.982a.6.6,0,0,1,0-.841l.788-.786a.6.6,0,0,1,.727-.089.449.449,0,0,0,.056.069.444.444,0,0,0,.128.089L8.175,98.3a.439.439,0,0,0,.215.217.6.6,0,0,1-.025.814l-.787.786a.6.6,0,0,1-.843,0l-.983-.983a.446.446,0,1,0-.63.63l.984.984a1.492,1.492,0,0,0,2.1,0L9,99.957A1.49,1.49,0,0,0,9.2,98.116l1.67-1.668.005-.005c.191-.2.724-.161,1.239-.125a6.412,6.412,0,0,0,1.172.008l1.829,1.827a1.49,1.49,0,0,0,.253,1.765l.788.787a1.49,1.49,0,0,0,2.1,0l4.777-4.771a1.489,1.489,0,0,0,0-2.1ZM11.211,83.1l1.933.366-1.157,1.157a2.81,2.81,0,0,1-.694-.5,2.051,2.051,0,0,1-.656-1.013h0a.389.389,0,0,1,0-.044,1.51,1.51,0,0,1,.575.039Zm-2.26.363a.657.657,0,0,1,.832-.079,3.188,3.188,0,0,0,.894,1.378,3.3,3.3,0,0,0,1.284.8.654.654,0,0,1-1,.835h0l-2.01-2.006a.656.656,0,0,1,0-.924ZM7.787,85.4a.657.657,0,0,1,.926,0l1.619,1.615a.655.655,0,0,1-.927.926h0L8.177,86.717l-.006-.006-.384-.384a.654.654,0,0,1,0-.924ZM6.62,87.348a.659.659,0,0,1,.923,0l1.232,1.231a.654.654,0,0,1-.927.923L7.4,89.053h0l-.781-.78a.656.656,0,0,1,0-.925Zm-.776,2.336a.659.659,0,0,1,.927,0l.447.447a.654.654,0,0,1-.927.923L6.235,91l0,0,0,0-.386-.385a.655.655,0,0,1,0-.924Zm9.083,5.065a.446.446,0,0,0-.63,0l-.4.4c-.377.377-1.06.329-1.72.284a2.356,2.356,0,0,0-1.938.391L8.6,97.46l-4.105-4.1,1.453-1.45A1.546,1.546,0,0,0,8.3,90.592s0-.008,0-.012h.012a1.542,1.542,0,0,0,1.545-1.543s0-.008,0-.012h.012a1.54,1.54,0,0,0,1.545-1.555h.012a1.546,1.546,0,0,0,1.319-2.35l1.273-1.273a.654.654,0,0,1,.335-.178l.039-.006a.653.653,0,0,1,.555,1.109l-.388.386,0,0-.447.446a.446.446,0,0,0,.63.631l.389-.389h0l.059-.059a.656.656,0,0,1,.925,0,.654.654,0,0,1,0,.924l-.39.391h0l-.447.445a.446.446,0,1,0,.629.632l.449-.447a.654.654,0,0,1,.926.925l-.778.778a.446.446,0,1,0,.63.63l.381-.381.007-.006a.654.654,0,0,1,.926.924l-.387.387h0l-.615.614a.446.446,0,0,0,.63.631l.3-.3,1.442,1.44-4.1,4.1-1.471-1.469a1.753,1.753,0,0,0,.293-.236l.4-.4a.446.446,0,0,0,0-.63Zm7.483.552-4.777,4.771a.6.6,0,0,1-.842,0L16,99.286a.6.6,0,0,1,0-.84l4.777-4.771a.6.6,0,0,1,.843,0l.787.785a.6.6,0,0,1,0,.841Z" transform="translate(0 -78.518)" fill="#006fff"/><path d="M83.478,5.127a.446.446,0,0,0,.63-.631L82.484,2.875a.446.446,0,0,0-.63.631Z" transform="translate(-77.252 -2.623)" fill="#006fff"/><path d="M372.1,5.258a.444.444,0,0,0,.315-.13l1.623-1.621a.446.446,0,0,0-.63-.631L371.782,4.5a.446.446,0,0,0,.315.761Z" transform="translate(-354.349 -2.624)" fill="#006fff"/><path d="M60.058,430.327a.446.446,0,0,0,.005.63h0a.446.446,0,1,0-.007-.632Z" transform="translate(-56.423 -411.155)" fill="#006fff"/><path d="M332.956,333.01a.446.446,0,1,0-.2-.844h0a.445.445,0,0,0,.2.843Z" transform="translate(-316.939 -317.42)" fill="#006fff"/></g></svg>