<svg xmlns="http://www.w3.org/2000/svg" width="42.847" height="38.443" viewBox="0 0 42.847 38.443"><g transform="translate(0 -26.315)"><g transform="translate(0 26.315)"><g transform="translate(0 0)"><path d="M42.164,57.2,25.787,28.834a5.038,5.038,0,0,0-8.727,0L.683,57.2a5.038,5.038,0,0,0,4.363,7.557H37.8A5.038,5.038,0,0,0,42.164,57.2ZM39.99,60.984A2.5,2.5,0,0,1,37.8,62.248H5.046a2.528,2.528,0,0,1-2.189-3.792L19.234,30.089a2.528,2.528,0,0,1,4.379,0L39.99,58.456A2.5,2.5,0,0,1,39.99,60.984Z" transform="translate(0 -26.315)" fill="#fff"/></g></g><g transform="translate(20.098 38.504)"><g transform="translate(0 0)"><rect width="2.65" height="13.251" fill="#fff"/></g></g><g transform="translate(19.656 53.757)"><path d="M237.769,355.99a1.767,1.767,0,1,0,1.767,1.767A1.769,1.769,0,0,0,237.769,355.99Z" transform="translate(-236.002 -355.99)" fill="#fff"/></g></g></svg>