<svg xmlns="http://www.w3.org/2000/svg" width="40.145" height="33.454" viewBox="0 0 40.145 33.454"><g transform="translate(0 -4)"><path d="M37.636,32.436H2.509A2.512,2.512,0,0,1,0,29.927V6.509A2.512,2.512,0,0,1,2.509,4H37.636a2.512,2.512,0,0,1,2.509,2.509V29.927A2.512,2.512,0,0,1,37.636,32.436ZM2.509,5.673a.838.838,0,0,0-.836.836V29.927a.838.838,0,0,0,.836.836H37.636a.838.838,0,0,0,.836-.836V6.509a.838.838,0,0,0-.836-.836Z" fill="#fff"/><path d="M20.546,26.691H8.837a.837.837,0,0,1-.592-1.428,6.8,6.8,0,0,0,2.23-4.423.844.844,0,0,1,.838-.84h6.724a.837.837,0,0,1,.836.831,6.964,6.964,0,0,0,2.265,4.431.837.837,0,0,1-.592,1.428Zm-9.917-1.673h8.124A8.738,8.738,0,0,1,17.3,21.673H12.062a8.617,8.617,0,0,1-1.434,3.345Zm8.245-4.182h.017Z" transform="translate(5.381 10.763)" fill="#fff"/><path d="M39.309,18.673H.836A.836.836,0,0,1,.836,17H39.309a.836.836,0,1,1,0,1.673Z" transform="translate(0 8.745)" fill="#fff"/><path d="M15.364,22.727a8.364,8.364,0,1,1,8.364-8.364A8.373,8.373,0,0,1,15.364,22.727Zm0-15.054a6.691,6.691,0,1,0,6.691,6.691A6.7,6.7,0,0,0,15.364,7.673Z" transform="translate(4.709 1.345)" fill="#fff"/><path d="M9.155,20.522A.836.836,0,0,1,8.562,19.1l5.078-5.077V6.836a.836.836,0,1,1,1.673,0v7.527a.842.842,0,0,1-.244.592L9.747,20.278A.84.84,0,0,1,9.155,20.522Z" transform="translate(5.595 1.345)" fill="#fff"/></g></svg>