<svg xmlns="http://www.w3.org/2000/svg" width="33.821" height="33.821" viewBox="0 0 33.821 33.821"><g transform="translate(1.981 13.938)"><path d="M59.318,211.107a.991.991,0,0,0-1.335.425l-1.153,2.232-1.11-2.22a.991.991,0,0,0-1.772,0l-1.1,2.191-1.1-2.191A.991.991,0,0,0,50.81,211l-.06,0a.991.991,0,0,0-.9.747.99.99,0,0,0-1.847-.2l-1.1,2.191-1.1-2.191a.991.991,0,0,0-1.773,0l-1.1,2.191-1.1-2.191a.99.99,0,0,0-1.847.2.991.991,0,0,0-.9-.747l-.06,0a.99.99,0,0,0-.947.546L37,213.735l-1.1-2.191a.992.992,0,0,0-1.772,0l-1.11,2.22-1.153-2.232a.991.991,0,1,0-1.761.91l2.048,3.963a.991.991,0,0,0,1.767-.012l1.1-2.191,1.1,2.191a.992.992,0,0,0,1.772,0l1.846-3.693A.988.988,0,0,0,40,212.23a1,1,0,0,0,.074.2l1.982,3.963a.992.992,0,0,0,1.772,0l1.1-2.191,1.1,2.191a.992.992,0,0,0,1.772,0l1.982-3.963a.992.992,0,0,0,.074-.2.988.988,0,0,0,.271.471l1.846,3.692a.992.992,0,0,0,1.772,0l1.1-2.191,1.1,2.191a.991.991,0,0,0,1.766.012l2.048-3.963A.991.991,0,0,0,59.318,211.107Z" transform="translate(-29.997 -210.996)" fill="#fff"/></g><path d="M32.568,10.525a16.909,16.909,0,0,0-31.315,0A2.97,2.97,0,0,0,0,12.947v7.927A2.97,2.97,0,0,0,1.253,23.3a16.909,16.909,0,0,0,31.315,0,2.97,2.97,0,0,0,1.253-2.422V12.947A2.97,2.97,0,0,0,32.568,10.525Zm-2.443-.55H25.059A19.024,19.024,0,0,0,22.2,3.22q-.131-.182-.265-.353A15.109,15.109,0,0,1,30.124,9.974ZM17.9,2.148c2.711.91,4.407,5.015,5.118,7.827H17.9Zm-1.982,0V9.974H10.8a16.6,16.6,0,0,1,2.431-5.6A5.928,5.928,0,0,1,15.919,2.148Zm-4.029.719q-.134.172-.265.353A19.023,19.023,0,0,0,8.762,9.974H3.7A15.109,15.109,0,0,1,11.89,2.867ZM3.7,23.846H8.762a18.641,18.641,0,0,0,3.128,7.108A15.109,15.109,0,0,1,3.7,23.846Zm12.223,7.827c-2.711-.91-4.407-5.015-5.118-7.827h5.118Zm1.982,0v-7.84H23.02C22.307,26.649,20.607,30.765,17.9,31.673Zm4.029-.719a18.7,18.7,0,0,0,3.128-7.121h5.066A15.133,15.133,0,0,1,21.93,30.954Zm9.908-10.08a.992.992,0,0,1-.991.991H2.973a.992.992,0,0,1-.991-.991V12.947a.992.992,0,0,1,.991-.991H30.848a.992.992,0,0,1,.991.991Z" fill="#fff"/></svg>