<svg xmlns="http://www.w3.org/2000/svg" width="42.851" height="42.805" viewBox="0 0 42.851 42.805"><g transform="translate(0 -0.277)"><g transform="translate(0 0.277)"><path d="M38.248,28.017a4.61,4.61,0,0,0-4.428,3.348H29.377v-4.9h4.537a8.938,8.938,0,0,0,2.6-17.49,10.217,10.217,0,0,0-9.9-7.733A10.107,10.107,0,0,0,21.5,2.611,8.941,8.941,0,0,0,6.537,8.917a8.938,8.938,0,0,0,2.4,17.547h4.537v4.9H9.031a4.6,4.6,0,1,0,0,2.511h5.7a1.255,1.255,0,0,0,1.255-1.255V26.464H20.17v7.587a4.6,4.6,0,1,0,2.511,0V26.464h4.185V32.62a1.255,1.255,0,0,0,1.255,1.255h5.7a4.6,4.6,0,1,0,4.428-5.859ZM4.6,34.713A2.092,2.092,0,1,1,6.7,32.62,2.095,2.095,0,0,1,4.6,34.713Zm18.915,3.766a2.092,2.092,0,1,1-2.092-2.092A2.095,2.095,0,0,1,23.518,38.479ZM8.937,23.953A6.427,6.427,0,0,1,8,11.168,1.255,1.255,0,0,0,9.07,9.81c-.018-.2-.027-.4-.027-.6A6.429,6.429,0,0,1,20.361,5.043a1.255,1.255,0,0,0,1.7.2,7.6,7.6,0,0,1,4.549-1.488A7.7,7.7,0,0,1,34.2,10.2a1.255,1.255,0,0,0,.99,1.029,6.427,6.427,0,0,1-1.278,12.726H8.937ZM38.248,34.713a2.092,2.092,0,1,1,2.092-2.092A2.095,2.095,0,0,1,38.248,34.713Z" transform="translate(0 -0.277)" fill="#fff"/></g></g></svg>