<svg xmlns="http://www.w3.org/2000/svg" width="21.853" height="23.358" viewBox="0 0 21.853 23.358"><g transform="translate(-1311.828 -1753.642)"><path d="M84.834,145h-3.65a.684.684,0,0,0,0,1.369h3.65a.684.684,0,0,0,0-1.369Z" transform="translate(1234.248 1615.257)" fill="#006fff"/><path d="M84.834,225h-3.65a.684.684,0,0,0,0,1.369h3.65a.684.684,0,0,0,0-1.369Z" transform="translate(1234.248 1538.906)" fill="#006fff"/><path d="M84.834,305h-3.65a.684.684,0,0,0,0,1.369h3.65a.684.684,0,0,0,0-1.369Z" transform="translate(1234.248 1462.556)" fill="#006fff"/><path d="M33.563,12.543V6.295a3.4,3.4,0,0,0-.979-2.4L29.807,1.027l0,0A3.444,3.444,0,0,0,27.362,0H18.553A2.055,2.055,0,0,0,16.5,2.053V19.8a2.055,2.055,0,0,0,2.053,2.053H29.13a5.44,5.44,0,1,0,4.433-9.31ZM17.869,19.8V2.053a.685.685,0,0,1,.684-.684h8.809a2.067,2.067,0,0,1,1.463.612L31.6,4.852l0,0a2.041,2.041,0,0,1,.589,1.439v6.248a5.427,5.427,0,0,0-4.1,7.941H18.553a.685.685,0,0,1-.684-.684Zm15.01,2.19a4.061,4.061,0,1,1,4.106-4.06A4.065,4.065,0,0,1,32.878,21.99Z" transform="translate(1295.328 1753.642)" fill="#006fff"/><path d="M333.174,354.16a.685.685,0,0,0-.964.088l-1.155,1.386-.262-.524a.684.684,0,0,0-1.224.612l.73,1.46a.685.685,0,0,0,.533.374.7.7,0,0,0,.079,0,.685.685,0,0,0,.526-.246l1.825-2.19A.684.684,0,0,0,333.174,354.16Z" transform="translate(996.611 1415.791)" fill="#006fff"/><path d="M241.184,146.369h.73a.684.684,0,0,0,0-1.369h-.73a.684.684,0,0,0,0,1.369Z" transform="translate(1081.547 1615.257)" fill="#006fff"/><path d="M242.6,225.684a.684.684,0,0,0-.684-.684h-.73a.684.684,0,0,0,0,1.369h.73A.684.684,0,0,0,242.6,225.684Z" transform="translate(1081.547 1538.906)" fill="#006fff"/></g></svg>