<svg xmlns="http://www.w3.org/2000/svg" width="27" height="25.45" viewBox="0 0 27 25.45">
  <g id="data-analytics-bars-graphic" transform="translate(0 -2.894)">
    <g id="Group_144" data-name="Group 144" transform="translate(0 2.894)">
      <path id="Path_390" data-name="Path 390" d="M26.6,27.54H24.691V26.245a.134.134,0,0,0-.268,0V27.54H22.012V26.245a.134.134,0,0,0-.268,0V27.54H19.333V26.245a.134.134,0,0,0-.268,0V27.54H16.654V26.245a.134.134,0,0,0-.268,0V27.54H13.975V26.245a.134.134,0,0,0-.268,0V27.54H11.3V26.245a.134.134,0,0,0-.268,0V27.54H8.617V26.245a.134.134,0,0,0-.268,0V27.54H5.938V26.245a.134.134,0,0,0-.268,0V27.54H.8V24.5H1.88a.134.134,0,0,0,0-.268H.8V21.825H1.88a.134.134,0,0,0,0-.268H.8V19.146H1.88a.134.134,0,1,0,0-.268H.8V16.467H1.88a.134.134,0,1,0,0-.268H.8V13.788H1.88a.134.134,0,1,0,0-.268H.8V11.109H1.88a.134.134,0,0,0,0-.268H.8V8.431H1.88a.134.134,0,0,0,0-.268H.8V5.752H1.88a.134.134,0,0,0,0-.268H.8V3.3a.4.4,0,0,0-.8,0V27.942a.4.4,0,0,0,.4.4H26.6a.4.4,0,0,0,0-.8Z" transform="translate(0 -2.894)" fill="#006fff"/>
      <rect id="Rectangle_1093" data-name="Rectangle 1093" width="2.746" height="18.162" transform="translate(4.191 3.644)" fill="#006fff"/>
      <rect id="Rectangle_1094" data-name="Rectangle 1094" width="2.746" height="11.118" transform="translate(10.018 10.688)" fill="#006fff"/>
      <rect id="Rectangle_1095" data-name="Rectangle 1095" width="2.746" height="14.935" transform="translate(15.777 6.871)" fill="#006fff"/>
      <rect id="Rectangle_1096" data-name="Rectangle 1096" width="2.746" height="13.127" transform="translate(21.805 8.679)" fill="#006fff"/>
    </g>
  </g>
</svg>
