<svg id="ecommerce" xmlns="http://www.w3.org/2000/svg" width="27.181" height="27.181" viewBox="0 0 27.181 27.181">
  <g id="Group_143" data-name="Group 143" transform="translate(0 0)">
    <g id="Group_142" data-name="Group 142" transform="translate(0 0)">
      <path id="Path_384" data-name="Path 384" d="M26.614,20.385a.566.566,0,0,0,.566-.566V.566A.566.566,0,0,0,26.614,0H14.157a.566.566,0,0,0-.566.566V7.928H2.265a.566.566,0,0,0-.566.566V23.783a1.7,1.7,0,0,0,0,3.4H25.482a1.7,1.7,0,0,0,0-3.4v-3.4ZM14.723,1.133H26.048V3.4H14.723Zm0,3.4H26.048V15.855H14.723ZM2.831,9.06H13.59V19.819a.566.566,0,0,0,.566.566H24.349v3.4H2.831ZM26.048,25.482a.566.566,0,0,1-.566.566H1.7a.566.566,0,1,1,0-1.133h8.494v.566h6.8v-.566h8.494A.566.566,0,0,1,26.048,25.482ZM14.723,19.253V16.988H26.048v2.265Z" transform="translate(0 0)" fill="#006fff"/>
      <rect id="Rectangle_1091" data-name="Rectangle 1091" width="1.133" height="1.133" transform="translate(24.349 1.699)" fill="#006fff"/>
      <rect id="Rectangle_1092" data-name="Rectangle 1092" width="2.265" height="1.133" transform="translate(19.253 17.554)" fill="#006fff"/>
      <path id="Path_385" data-name="Path 385" d="M303.2,106.667a4.53,4.53,0,1,0,4.53,4.53A4.53,4.53,0,0,0,303.2,106.667Zm0,7.928a3.4,3.4,0,1,1,3.4-3.4A3.4,3.4,0,0,1,303.2,114.595Z" transform="translate(-282.812 -101.004)" fill="#006fff"/>
      <path id="Path_386" data-name="Path 386" d="M354.265,138.667h-1.133v.566h-.566a.566.566,0,0,0-.566.566v1.7a.566.566,0,0,0,.566.566h1.7v.566H352v1.133h1.133v.566h1.133v-.566h.566a.566.566,0,0,0,.566-.566v-1.7a.566.566,0,0,0-.566-.566h-1.7v-.566H355.4v-1.133h-1.133Z" transform="translate(-333.313 -131.306)" fill="#006fff"/>
      <path id="Path_387" data-name="Path 387" d="M74.667,193.7v1.133H75.8V193.7a.566.566,0,0,1,.566-.566H77.5V192H76.366A1.7,1.7,0,0,0,74.667,193.7Z" transform="translate(-70.703 -181.807)" fill="#006fff"/>
      <path id="Path_388" data-name="Path 388" d="M75.8,374.466v-1.133H74.667v1.133a1.7,1.7,0,0,0,1.7,1.7H77.5v-1.133H76.366A.566.566,0,0,1,75.8,374.466Z" transform="translate(-70.703 -353.515)" fill="#006fff"/>
    </g>
  </g>
</svg>
