<svg xmlns="http://www.w3.org/2000/svg" width="22.747" height="22.747" viewBox="0 0 22.747 22.747"><g transform="translate(-938.906 -1753.253)"><path d="M4,17.59a1.855,1.855,0,0,0-.9.229A10.49,10.49,0,0,1,13.461,1.1a.444.444,0,0,0,.176-.871A11.458,11.458,0,0,0,11.373,0,11.373,11.373,0,0,0,2.447,18.421,1.867,1.867,0,1,0,4,17.59Zm.691,2.557a.977.977,0,1,1,.286-.691A.971.971,0,0,1,4.691,20.147Zm0,0" transform="translate(938.906 1753.254)" fill="#006fff"/><path d="M209.009,34.951a1.862,1.862,0,1,0-.657.6,10.49,10.49,0,0,1-10.337,16.727.444.444,0,1,0-.174.871,11.466,11.466,0,0,0,2.243.221,11.373,11.373,0,0,0,8.926-18.422Zm-2.244-.343a.978.978,0,1,1,.691.286A.971.971,0,0,1,206.765,34.608Zm0,0" transform="translate(750.196 1722.626)" fill="#006fff"/><path d="M80.237,89.727a.444.444,0,0,0,.444.444h2.778a.444.444,0,0,0,.444-.444v-.861a6.957,6.957,0,0,0,1.667-.691l.608.608a.444.444,0,0,0,.628,0l1.963-1.965a.444.444,0,0,0,0-.628l-.607-.607a6.958,6.958,0,0,0,.691-1.667h.858a.444.444,0,0,0,.444-.444V80.693a.444.444,0,0,0-.444-.444h-.858a6.959,6.959,0,0,0-.691-1.667l.6-.6a.444.444,0,0,0,0-.629L86.8,75.385a.444.444,0,0,0-.628,0l-.6.6A6.957,6.957,0,0,0,83.9,75.3v-.853A.444.444,0,0,0,83.459,74H80.682a.444.444,0,0,0-.444.444V75.3a6.951,6.951,0,0,0-1.667.691l-.6-.6a.444.444,0,0,0-.628,0l-1.965,1.964a.444.444,0,0,0,0,.628l.6.6a6.955,6.955,0,0,0-.691,1.667H74.43a.444.444,0,0,0-.444.444l0,2.778a.444.444,0,0,0,.444.444h.858a6.957,6.957,0,0,0,.691,1.667l-.607.607a.444.444,0,0,0,0,.628l1.963,1.965a.444.444,0,0,0,.314.13h0a.444.444,0,0,0,.314-.13l.608-.608a6.963,6.963,0,0,0,1.667.691Zm-1.493-2.487a.444.444,0,0,0-.555.059l-.541.541L76.312,86.5l.54-.541a.444.444,0,0,0,.059-.555,6.081,6.081,0,0,1-.842-2.031.444.444,0,0,0-.434-.351h-.763V81.137h.762a.444.444,0,0,0,.434-.351,6.082,6.082,0,0,1,.842-2.031.444.444,0,0,0-.059-.555l-.537-.537,1.336-1.335.536.537a.445.445,0,0,0,.555.059,6.079,6.079,0,0,1,2.031-.842.445.445,0,0,0,.351-.434v-.759h1.889v.759a.444.444,0,0,0,.351.434,6.084,6.084,0,0,1,2.031.842.444.444,0,0,0,.555-.059l.537-.536,1.336,1.335-.537.537a.444.444,0,0,0-.059.555,6.085,6.085,0,0,1,.842,2.031.444.444,0,0,0,.434.351h.763v1.889h-.763a.444.444,0,0,0-.434.351,6.08,6.08,0,0,1-.842,2.031.444.444,0,0,0,.059.555l.54.54L86.493,87.84l-.541-.541a.444.444,0,0,0-.555-.059,6.085,6.085,0,0,1-2.031.842.444.444,0,0,0-.351.434v.767H81.126v-.767a.445.445,0,0,0-.351-.434A6.081,6.081,0,0,1,78.744,87.241Zm0,0" transform="translate(868.209 1682.541)" fill="#006fff"/><path d="M180.713,177.042a3.671,3.671,0,1,0-3.671,3.671A3.675,3.675,0,0,0,180.713,177.042Zm-6.453,0a2.782,2.782,0,1,1,2.782,2.782A2.785,2.785,0,0,1,174.26,177.042Zm0,0" transform="translate(773.237 1587.585)" fill="#006fff"/><path d="M338.522,18.7a.445.445,0,1,0-.314-.13A.447.447,0,0,0,338.522,18.7Zm0,0" transform="translate(615.848 1736.236)" fill="#006fff"/><path d="M154.8,474.359a.444.444,0,1,0,.314.13A.448.448,0,0,0,154.8,474.359Zm0,0" transform="translate(791.405 1299.969)" fill="#006fff"/></g></svg>