<svg xmlns="http://www.w3.org/2000/svg" width="30.778" height="30.778" viewBox="0 0 30.778 30.778">
  <g id="_11-call_center_support" data-name="11-call center support" transform="translate(-4 -4)">
    <g id="linear_color" data-name="linear color" transform="translate(4 4)">
      <path id="Path_391" data-name="Path 391" d="M25.985,14.823V12.951a.733.733,0,0,0-.643-.727l-1.549-.191-.485-1.171.959-1.23a.733.733,0,0,0-.06-.969L21.322,5.777a.733.733,0,0,0-.969-.06l-1.23.959-1.171-.485L17.76,4.643A.733.733,0,0,0,17.033,4H12.951a.733.733,0,0,0-.727.643l-.191,1.549-1.171.485-1.23-.959a.733.733,0,0,0-.969.06L5.777,8.663a.733.733,0,0,0-.06.969l.959,1.23-.485,1.171-1.549.191A.733.733,0,0,0,4,12.951v4.082a.733.733,0,0,0,.643.727l1.549.191.485,1.171-.959,1.23a.733.733,0,0,0,.06.969l2.886,2.886a.733.733,0,0,0,.969.06l1.23-.959,1.171.485.191,1.549a.733.733,0,0,0,.727.643h1.871A10.015,10.015,0,1,0,25.985,14.823ZM13.435,23.189a.733.733,0,0,0-.447-.587l-1.96-.812a.733.733,0,0,0-.731.1l-1.056.824-1.97-1.97.824-1.056a.733.733,0,0,0,.1-.731L7.382,17a.733.733,0,0,0-.587-.447l-1.329-.164V13.6l1.33-.164a.733.733,0,0,0,.587-.447l.812-1.96a.733.733,0,0,0-.1-.731L7.271,9.241l1.97-1.97,1.056.824a.733.733,0,0,0,.731.1l1.96-.812a.733.733,0,0,0,.447-.587L13.6,5.466h2.786l.164,1.33A.733.733,0,0,0,17,7.382l1.96.812a.733.733,0,0,0,.731-.1l1.056-.824,1.97,1.97L21.89,10.3a.733.733,0,0,0-.1.731l.812,1.96a.733.733,0,0,0,.587.447l1.329.164v1.152a9.948,9.948,0,0,0-4,.944,5.576,5.576,0,1,0-4.819,4.82,9.948,9.948,0,0,0-.944,4H13.6Zm3.39-4.525a4.1,4.1,0,1,1,1.84-1.84,10.1,10.1,0,0,0-1.84,1.84Zm7.939,14.648a8.55,8.55,0,1,1,8.55-8.55A8.559,8.559,0,0,1,24.763,33.313Z" transform="translate(-4 -4)" fill="#006fff"/>
      <path id="Path_392" data-name="Path 392" d="M240.946,233.374h-1.221v-.733a4.641,4.641,0,1,0-9.282,0v.733h-1.221A1.223,1.223,0,0,0,228,234.6v2.565a1.1,1.1,0,0,0,1.1,1.1h1.343v.244a2.2,2.2,0,0,0,2.2,2.2h3.42a.733.733,0,0,0,0-1.466h-3.42a.734.734,0,0,1-.733-.733v-5.863a3.176,3.176,0,0,1,6.351,0v4.885a.733.733,0,0,0,.733.733h2.076a1.1,1.1,0,0,0,1.1-1.1V234.6A1.223,1.223,0,0,0,240.946,233.374Zm-11.481,1.466h.977v1.954h-.977Zm11.237,1.954h-.977V234.84h.977Z" transform="translate(-214.321 -214.321)" fill="#006fff"/>
    </g>
  </g>
</svg>
