<svg xmlns="http://www.w3.org/2000/svg" width="22.778" height="22.778" viewBox="0 0 22.778 22.778"><g transform="translate(12.101)"><path d="M272.667,0A.667.667,0,0,0,272,.667v9.387a.667.667,0,0,0,.667.667h9.343a.667.667,0,0,0,.667-.667A10.052,10.052,0,0,0,272.667,0Zm.667,9.387V1.36a8.712,8.712,0,0,1,7.983,8.027Z" transform="translate(-272 0)" fill="#006fff"/></g><g transform="translate(0 2.714)"><path d="M14,79.569l-3.238-8.68V61.667A.667.667,0,0,0,10.1,61a10.032,10.032,0,1,0,0,20.065,9.948,9.948,0,0,0,3.516-.637A.667.667,0,0,0,14,79.569Zm-3.906.16a8.7,8.7,0,0,1-.667-17.37v8.65a.667.667,0,0,0,.042.233l3.039,8.145A8.637,8.637,0,0,1,10.1,79.73Z" transform="translate(0 -61)" fill="#006fff"/></g><g transform="translate(12.101 12.057)"><path d="M282.01,271h-9.343a.667.667,0,0,0-.625.9l3.281,8.793a.668.668,0,0,0,.86.391,10.1,10.1,0,0,0,6.494-9.417A.667.667,0,0,0,282.01,271Zm-5.68,8.575-2.7-7.245h7.688A8.777,8.777,0,0,1,276.33,279.575Z" transform="translate(-272 -271)" fill="#006fff"/></g></svg>