<svg xmlns="http://www.w3.org/2000/svg" width="26.169" height="23" viewBox="0 0 26.169 23"><path d="M25.407,3.067H18.451V2.3a2.3,2.3,0,0,0-2.3-2.3H10.018a2.3,2.3,0,0,0-2.3,2.3v.767H.767A.769.769,0,0,0,0,3.833V20.7A2.3,2.3,0,0,0,2.3,23H23.869a2.3,2.3,0,0,0,2.3-2.3V3.846a.744.744,0,0,0-.762-.78ZM9.251,2.3a.768.768,0,0,1,.767-.767h6.133a.768.768,0,0,1,.767.767v.767H9.251ZM24.339,4.6l-2.381,7.142a.765.765,0,0,1-.727.524H16.918V11.5a.767.767,0,0,0-.767-.767H10.018a.767.767,0,0,0-.767.767v.767H4.939a.765.765,0,0,1-.727-.524L1.831,4.6Zm-8.954,7.667V13.8h-4.6V12.267ZM24.636,20.7a.768.768,0,0,1-.767.767H2.3a.768.768,0,0,1-.767-.767V8.558l1.223,3.67A2.3,2.3,0,0,0,4.939,13.8H9.251v.767a.767.767,0,0,0,.767.767h6.133a.767.767,0,0,0,.767-.767V13.8h4.313a2.3,2.3,0,0,0,2.182-1.573l1.223-3.67Zm0,0" transform="translate(0)" fill="#006fff"/></svg>